STARTFONT 2.1
FONT -Trip5-MatrixChunky8X-Medium-R-Normal--8-80-75-75-P-40-ISO10646-1
SIZE 8 75 75
FONTBOUNDINGBOX 16 16 -2 0
STARTPROPERTIES 25
ADD_STYLE_NAME ""
AVERAGE_WIDTH 140
CAP_HEIGHT 16
CHARSET_COLLECTIONS "ISO8859-2 ISO8859-9 ISO8859-4 ISO10646-1"
CHARSET_ENCODING "1"
CHARSET_REGISTRY "ISO10646"
COPYRIGHT "https://github.com/trip5/Matrix-Fonts"
FACE_NAME "MatrixChunky16X"
FAMILY_NAME "MatrixChunky16X"
FONT_ASCENT 16
FONT_DESCENT 0
FONT_NAME "MatrixChunky16X"
FONT_VERSION "001.000"
FOUNDRY "Conventional Chaos"
PIXEL_SIZE 16
POINT_SIZE 16
RESOLUTION_X 75
RESOLUTION_Y 75
SETWIDTH_NAME "Normal"
SLANT "R"
SPACING "P"
UNDERLINE_POSITION 0
UNDERLINE_THICKNESS 1
WEIGHT_NAME "Medium"
X_HEIGHT 12
ENDPROPERTIES
CHARS 535
STARTCHAR uni0000
ENCODING 0
SWIDTH 888 0
DWIDTH 8 0
BBX 6 10 0 4
BITMAP
CC
CC
00
00
30
30
00
00
CC
CC
ENDCHAR
STARTCHAR space
ENCODING 32
SWIDTH 444 0
DWIDTH 4 0
BBX 2 2 0 0
BITMAP
00
00
ENDCHAR
STARTCHAR exclam
ENCODING 33
SWIDTH 444 0
DWIDTH 4 0
BBX 2 16 0 0
BITMAP
C0
C0
C0
C0
C0
C0
C0
C0
C0
C0
C0
C0
00
00
C0
C0
ENDCHAR
STARTCHAR quotedbl
ENCODING 34
SWIDTH 888 0
DWIDTH 8 0
BBX 6 4 0 12
BITMAP
CC
CC
CC
CC
ENDCHAR
STARTCHAR numbersign
ENCODING 35
SWIDTH 1333 0
DWIDTH 12 0
BBX 10 16 0 0
BITMAP
3300
3300
3300
3300
FFC0
FFC0
3300
3300
3300
3300
FFC0
FFC0
3300
3300
3300
3300
ENDCHAR
STARTCHAR dollar
ENCODING 36
SWIDTH 888 0
DWIDTH 8 0
BBX 6 16 0 0
BITMAP
30
30
FC
FC
C0
C0
FC
FC
0C
0C
0C
0C
FC
FC
30
30
ENDCHAR
STARTCHAR percent
ENCODING 37
SWIDTH 888 0
DWIDTH 8 0
BBX 6 16 0 0
BITMAP
CC
CC
CC
CC
0C
0C
30
30
30
30
C0
C0
CC
CC
CC
CC
ENDCHAR
STARTCHAR ampersand
ENCODING 38
SWIDTH 1111 0
DWIDTH 10 0
BBX 8 16 0 0
BITMAP
FC
FC
CC
CC
CC
CC
30
30
CF
CF
CC
CC
CF
CF
F3
F3
ENDCHAR
STARTCHAR quotesingle
ENCODING 39
SWIDTH 444 0
DWIDTH 4 0
BBX 2 6 0 10
BITMAP
C0
C0
C0
C0
C0
C0
ENDCHAR
STARTCHAR parenleft
ENCODING 40
SWIDTH 666 0
DWIDTH 6 0
BBX 4 16 0 0
BITMAP
30
30
30
30
C0
C0
C0
C0
C0
C0
C0
C0
30
30
30
30
ENDCHAR
STARTCHAR parenright
ENCODING 41
SWIDTH 666 0
DWIDTH 6 0
BBX 4 16 0 0
BITMAP
C0
C0
C0
C0
30
30
30
30
30
30
30
30
C0
C0
C0
C0
ENDCHAR
STARTCHAR asterisk
ENCODING 42
SWIDTH 1111 0
DWIDTH 10 0
BBX 8 8 0 8
BITMAP
C3
C3
3C
3C
3C
3C
C3
C3
ENDCHAR
STARTCHAR plus
ENCODING 43
SWIDTH 888 0
DWIDTH 8 0
BBX 6 6 0 6
BITMAP
30
30
FC
FC
30
30
ENDCHAR
STARTCHAR comma
ENCODING 44
SWIDTH 444 0
DWIDTH 4 0
BBX 2 4 0 0
BITMAP
C0
C0
C0
C0
ENDCHAR
STARTCHAR hyphen
ENCODING 45
SWIDTH 888 0
DWIDTH 8 0
BBX 6 2 0 8
BITMAP
FC
FC
ENDCHAR
STARTCHAR period
ENCODING 46
SWIDTH 444 0
DWIDTH 4 0
BBX 2 2 0 0
BITMAP
C0
C0
ENDCHAR
STARTCHAR slash
ENCODING 47
SWIDTH 888 0
DWIDTH 8 0
BBX 6 16 0 0
BITMAP
0C
0C
0C
0C
30
30
30
30
30
30
C0
C0
C0
C0
C0
C0
ENDCHAR
STARTCHAR zero
ENCODING 48
SWIDTH 888 0
DWIDTH 8 0
BBX 6 16 0 0
BITMAP
FC
FC
CC
CC
CC
CC
CC
CC
CC
CC
CC
CC
CC
CC
FC
FC
ENDCHAR
STARTCHAR one
ENCODING 49
SWIDTH 888 0
DWIDTH 8 0
BBX 6 16 0 0
BITMAP
30
30
F0
F0
30
30
30
30
30
30
30
30
30
30
FC
FC
ENDCHAR
STARTCHAR two
ENCODING 50
SWIDTH 888 0
DWIDTH 8 0
BBX 6 16 0 0
BITMAP
FC
FC
0C
0C
0C
0C
FC
FC
C0
C0
C0
C0
C0
C0
FC
FC
ENDCHAR
STARTCHAR three
ENCODING 51
SWIDTH 888 0
DWIDTH 8 0
BBX 6 16 0 0
BITMAP
FC
FC
0C
0C
0C
0C
FC
FC
0C
0C
0C
0C
0C
0C
FC
FC
ENDCHAR
STARTCHAR four
ENCODING 52
SWIDTH 888 0
DWIDTH 8 0
BBX 6 16 0 0
BITMAP
CC
CC
CC
CC
CC
CC
FC
FC
0C
0C
0C
0C
0C
0C
0C
0C
ENDCHAR
STARTCHAR five
ENCODING 53
SWIDTH 888 0
DWIDTH 8 0
BBX 6 16 0 0
BITMAP
FC
FC
C0
C0
C0
C0
FC
FC
0C
0C
0C
0C
0C
0C
FC
FC
ENDCHAR
STARTCHAR six
ENCODING 54
SWIDTH 888 0
DWIDTH 8 0
BBX 6 16 0 0
BITMAP
FC
FC
C0
C0
C0
C0
FC
FC
CC
CC
CC
CC
CC
CC
FC
FC
ENDCHAR
STARTCHAR seven
ENCODING 55
SWIDTH 888 0
DWIDTH 8 0
BBX 6 16 0 0
BITMAP
FC
FC
0C
0C
0C
0C
0C
0C
0C
0C
0C
0C
0C
0C
0C
0C
ENDCHAR
STARTCHAR eight
ENCODING 56
SWIDTH 888 0
DWIDTH 8 0
BBX 6 16 0 0
BITMAP
FC
FC
CC
CC
CC
CC
FC
FC
CC
CC
CC
CC
CC
CC
FC
FC
ENDCHAR
STARTCHAR nine
ENCODING 57
SWIDTH 888 0
DWIDTH 8 0
BBX 6 16 0 0
BITMAP
FC
FC
CC
CC
CC
CC
FC
FC
0C
0C
0C
0C
0C
0C
FC
FC
ENDCHAR
STARTCHAR colon
ENCODING 58
SWIDTH 444 0
DWIDTH 4 0
BBX 2 6 0 6
BITMAP
C0
C0
00
00
C0
C0
ENDCHAR
STARTCHAR semicolon
ENCODING 59
SWIDTH 444 0
DWIDTH 4 0
BBX 2 8 0 4
BITMAP
C0
C0
00
00
C0
C0
C0
C0
ENDCHAR
STARTCHAR less
ENCODING 60
SWIDTH 888 0
DWIDTH 8 0
BBX 6 10 0 4
BITMAP
0C
0C
30
30
C0
C0
30
30
0C
0C
ENDCHAR
STARTCHAR equal
ENCODING 61
SWIDTH 888 0
DWIDTH 8 0
BBX 6 6 0 6
BITMAP
FC
FC
00
00
FC
FC
ENDCHAR
STARTCHAR greater
ENCODING 62
SWIDTH 888 0
DWIDTH 8 0
BBX 6 10 0 4
BITMAP
C0
C0
30
30
0C
0C
30
30
C0
C0
ENDCHAR
STARTCHAR question
ENCODING 63
SWIDTH 888 0
DWIDTH 8 0
BBX 6 16 0 0
BITMAP
FC
FC
CC
CC
0C
0C
3C
3C
30
30
30
30
00
00
30
30
ENDCHAR
STARTCHAR at
ENCODING 64
SWIDTH 1111 0
DWIDTH 10 0
BBX 8 16 0 0
BITMAP
FF
FF
C3
C3
C3
C3
CF
CF
CF
CF
C0
C0
C0
C0
FF
FF
ENDCHAR
STARTCHAR A
ENCODING 65
SWIDTH 888 0
DWIDTH 8 0
BBX 6 16 0 0
BITMAP
FC
FC
CC
CC
CC
CC
FC
FC
CC
CC
CC
CC
CC
CC
CC
CC
ENDCHAR
STARTCHAR B
ENCODING 66
SWIDTH 888 0
DWIDTH 8 0
BBX 6 16 0 0
BITMAP
FC
FC
CC
CC
CC
CC
F0
F0
CC
CC
CC
CC
CC
CC
FC
FC
ENDCHAR
STARTCHAR C
ENCODING 67
SWIDTH 888 0
DWIDTH 8 0
BBX 6 16 0 0
BITMAP
FC
FC
CC
CC
C0
C0
C0
C0
C0
C0
C0
C0
CC
CC
FC
FC
ENDCHAR
STARTCHAR D
ENCODING 68
SWIDTH 888 0
DWIDTH 8 0
BBX 6 16 0 0
BITMAP
F0
F0
CC
CC
CC
CC
CC
CC
CC
CC
CC
CC
CC
CC
FC
FC
ENDCHAR
STARTCHAR E
ENCODING 69
SWIDTH 888 0
DWIDTH 8 0
BBX 6 16 0 0
BITMAP
FC
FC
C0
C0
C0
C0
FC
FC
C0
C0
C0
C0
C0
C0
FC
FC
ENDCHAR
STARTCHAR F
ENCODING 70
SWIDTH 888 0
DWIDTH 8 0
BBX 6 16 0 0
BITMAP
FC
FC
C0
C0
C0
C0
FC
FC
C0
C0
C0
C0
C0
C0
C0
C0
ENDCHAR
STARTCHAR G
ENCODING 71
SWIDTH 1111 0
DWIDTH 10 0
BBX 8 16 0 0
BITMAP
FC
FC
C0
C0
C0
C0
CF
CF
C3
C3
C3
C3
C3
C3
FF
FF
ENDCHAR
STARTCHAR H
ENCODING 72
SWIDTH 1111 0
DWIDTH 10 0
BBX 8 16 0 0
BITMAP
C3
C3
C3
C3
C3
C3
FF
FF
C3
C3
C3
C3
C3
C3
C3
C3
ENDCHAR
STARTCHAR I
ENCODING 73
SWIDTH 888 0
DWIDTH 8 0
BBX 6 16 0 0
BITMAP
FC
FC
30
30
30
30
30
30
30
30
30
30
30
30
FC
FC
ENDCHAR
STARTCHAR J
ENCODING 74
SWIDTH 888 0
DWIDTH 8 0
BBX 6 16 0 0
BITMAP
0C
0C
0C
0C
0C
0C
0C
0C
0C
0C
CC
CC
CC
CC
FC
FC
ENDCHAR
STARTCHAR K
ENCODING 75
SWIDTH 888 0
DWIDTH 8 0
BBX 6 16 0 0
BITMAP
CC
CC
CC
CC
CC
CC
F0
F0
CC
CC
CC
CC
CC
CC
CC
CC
ENDCHAR
STARTCHAR L
ENCODING 76
SWIDTH 888 0
DWIDTH 8 0
BBX 6 16 0 0
BITMAP
C0
C0
C0
C0
C0
C0
C0
C0
C0
C0
C0
C0
C0
C0
FC
FC
ENDCHAR
STARTCHAR M
ENCODING 77
SWIDTH 1333 0
DWIDTH 12 0
BBX 10 16 0 0
BITMAP
C0C0
C0C0
F3C0
F3C0
CCC0
CCC0
CCC0
CCC0
C0C0
C0C0
C0C0
C0C0
C0C0
C0C0
C0C0
C0C0
ENDCHAR
STARTCHAR N
ENCODING 78
SWIDTH 1111 0
DWIDTH 10 0
BBX 8 16 0 0
BITMAP
C3
C3
C3
C3
F3
F3
CF
CF
C3
C3
C3
C3
C3
C3
C3
C3
ENDCHAR
STARTCHAR O
ENCODING 79
SWIDTH 1111 0
DWIDTH 10 0
BBX 8 16 0 0
BITMAP
FF
FF
C3
C3
C3
C3
C3
C3
C3
C3
C3
C3
C3
C3
FF
FF
ENDCHAR
STARTCHAR P
ENCODING 80
SWIDTH 888 0
DWIDTH 8 0
BBX 6 16 0 0
BITMAP
FC
FC
CC
CC
CC
CC
FC
FC
C0
C0
C0
C0
C0
C0
C0
C0
ENDCHAR
STARTCHAR Q
ENCODING 81
SWIDTH 1111 0
DWIDTH 10 0
BBX 8 16 0 0
BITMAP
FF
FF
C3
C3
C3
C3
C3
C3
CF
CF
CF
CF
CC
CC
F3
F3
ENDCHAR
STARTCHAR R
ENCODING 82
SWIDTH 888 0
DWIDTH 8 0
BBX 6 16 0 0
BITMAP
FC
FC
CC
CC
CC
CC
F0
F0
CC
CC
CC
CC
CC
CC
CC
CC
ENDCHAR
STARTCHAR S
ENCODING 83
SWIDTH 888 0
DWIDTH 8 0
BBX 6 16 0 0
BITMAP
FC
FC
CC
CC
C0
C0
FC
FC
0C
0C
0C
0C
CC
CC
FC
FC
ENDCHAR
STARTCHAR T
ENCODING 84
SWIDTH 888 0
DWIDTH 8 0
BBX 6 16 0 0
BITMAP
FC
FC
30
30
30
30
30
30
30
30
30
30
30
30
30
30
ENDCHAR
STARTCHAR U
ENCODING 85
SWIDTH 888 0
DWIDTH 8 0
BBX 6 16 0 0
BITMAP
CC
CC
CC
CC
CC
CC
CC
CC
CC
CC
CC
CC
CC
CC
FC
FC
ENDCHAR
STARTCHAR V
ENCODING 86
SWIDTH 888 0
DWIDTH 8 0
BBX 6 16 0 0
BITMAP
CC
CC
CC
CC
CC
CC
CC
CC
CC
CC
CC
CC
FC
FC
30
30
ENDCHAR
STARTCHAR W
ENCODING 87
SWIDTH 1333 0
DWIDTH 12 0
BBX 10 16 0 0
BITMAP
CCC0
CCC0
CCC0
CCC0
CCC0
CCC0
CCC0
CCC0
CCC0
CCC0
CCC0
CCC0
FFC0
FFC0
3300
3300
ENDCHAR
STARTCHAR X
ENCODING 88
SWIDTH 888 0
DWIDTH 8 0
BBX 6 16 0 0
BITMAP
CC
CC
CC
CC
CC
CC
30
30
CC
CC
CC
CC
CC
CC
CC
CC
ENDCHAR
STARTCHAR Y
ENCODING 89
SWIDTH 888 0
DWIDTH 8 0
BBX 6 16 0 0
BITMAP
CC
CC
CC
CC
CC
CC
FC
FC
30
30
30
30
30
30
30
30
ENDCHAR
STARTCHAR Z
ENCODING 90
SWIDTH 888 0
DWIDTH 8 0
BBX 6 16 0 0
BITMAP
FC
FC
0C
0C
0C
0C
30
30
C0
C0
C0
C0
C0
C0
FC
FC
ENDCHAR
STARTCHAR bracketleft
ENCODING 91
SWIDTH 888 0
DWIDTH 8 0
BBX 6 16 0 0
BITMAP
FC
FC
C0
C0
C0
C0
C0
C0
C0
C0
C0
C0
C0
C0
FC
FC
ENDCHAR
STARTCHAR backslash
ENCODING 92
SWIDTH 888 0
DWIDTH 8 0
BBX 6 16 0 0
BITMAP
C0
C0
C0
C0
30
30
30
30
30
30
0C
0C
0C
0C
0C
0C
ENDCHAR
STARTCHAR bracketright
ENCODING 93
SWIDTH 888 0
DWIDTH 8 0
BBX 6 16 0 0
BITMAP
FC
FC
0C
0C
0C
0C
0C
0C
0C
0C
0C
0C
0C
0C
FC
FC
ENDCHAR
STARTCHAR asciicircum
ENCODING 94
SWIDTH 888 0
DWIDTH 8 0
BBX 6 6 0 10
BITMAP
30
30
FC
FC
CC
CC
ENDCHAR
STARTCHAR underscore
ENCODING 95
SWIDTH 888 0
DWIDTH 8 0
BBX 6 2 0 0
BITMAP
FC
FC
ENDCHAR
STARTCHAR grave
ENCODING 96
SWIDTH 666 0
DWIDTH 6 0
BBX 4 4 0 12
BITMAP
C0
C0
30
30
ENDCHAR
STARTCHAR a
ENCODING 97
SWIDTH 888 0
DWIDTH 8 0
BBX 6 10 0 0
BITMAP
FC
FC
0C
0C
FC
FC
CC
CC
FC
FC
ENDCHAR
STARTCHAR b
ENCODING 98
SWIDTH 888 0
DWIDTH 8 0
BBX 6 16 0 0
BITMAP
C0
C0
C0
C0
C0
C0
FC
FC
CC
CC
CC
CC
CC
CC
FC
FC
ENDCHAR
STARTCHAR c
ENCODING 99
SWIDTH 888 0
DWIDTH 8 0
BBX 6 10 0 0
BITMAP
FC
FC
C0
C0
C0
C0
C0
C0
FC
FC
ENDCHAR
STARTCHAR d
ENCODING 100
SWIDTH 888 0
DWIDTH 8 0
BBX 6 16 0 0
BITMAP
0C
0C
0C
0C
0C
0C
FC
FC
CC
CC
CC
CC
CC
CC
FC
FC
ENDCHAR
STARTCHAR e
ENCODING 101
SWIDTH 888 0
DWIDTH 8 0
BBX 6 10 0 0
BITMAP
FC
FC
CC
CC
FC
FC
C0
C0
FC
FC
ENDCHAR
STARTCHAR f
ENCODING 102
SWIDTH 888 0
DWIDTH 8 0
BBX 6 14 0 0
BITMAP
3C
3C
30
30
30
30
FC
FC
30
30
30
30
30
30
ENDCHAR
STARTCHAR g
ENCODING 103
SWIDTH 888 0
DWIDTH 8 0
BBX 6 10 0 0
BITMAP
FC
FC
CC
CC
FC
FC
0C
0C
3C
3C
ENDCHAR
STARTCHAR h
ENCODING 104
SWIDTH 888 0
DWIDTH 8 0
BBX 6 16 0 0
BITMAP
C0
C0
C0
C0
C0
C0
FC
FC
CC
CC
CC
CC
CC
CC
CC
CC
ENDCHAR
STARTCHAR i
ENCODING 105
SWIDTH 888 0
DWIDTH 8 0
BBX 6 14 0 0
BITMAP
30
30
00
00
F0
F0
30
30
30
30
30
30
FC
FC
ENDCHAR
STARTCHAR j
ENCODING 106
SWIDTH 888 0
DWIDTH 8 0
BBX 6 14 0 0
BITMAP
0C
0C
00
00
0C
0C
0C
0C
0C
0C
CC
CC
FC
FC
ENDCHAR
STARTCHAR k
ENCODING 107
SWIDTH 888 0
DWIDTH 8 0
BBX 6 16 0 0
BITMAP
C0
C0
C0
C0
CC
CC
CC
CC
F0
F0
CC
CC
CC
CC
CC
CC
ENDCHAR
STARTCHAR l
ENCODING 108
SWIDTH 888 0
DWIDTH 8 0
BBX 6 16 0 0
BITMAP
F0
F0
30
30
30
30
30
30
30
30
30
30
30
30
FC
FC
ENDCHAR
STARTCHAR m
ENCODING 109
SWIDTH 1333 0
DWIDTH 12 0
BBX 10 10 0 0
BITMAP
FFC0
FFC0
CCC0
CCC0
CCC0
CCC0
CCC0
CCC0
CCC0
CCC0
ENDCHAR
STARTCHAR n
ENCODING 110
SWIDTH 888 0
DWIDTH 8 0
BBX 6 10 0 0
BITMAP
FC
FC
CC
CC
CC
CC
CC
CC
CC
CC
ENDCHAR
STARTCHAR o
ENCODING 111
SWIDTH 888 0
DWIDTH 8 0
BBX 6 10 0 0
BITMAP
FC
FC
CC
CC
CC
CC
CC
CC
FC
FC
ENDCHAR
STARTCHAR p
ENCODING 112
SWIDTH 888 0
DWIDTH 8 0
BBX 6 10 0 0
BITMAP
FC
FC
CC
CC
FC
FC
C0
C0
C0
C0
ENDCHAR
STARTCHAR q
ENCODING 113
SWIDTH 888 0
DWIDTH 8 0
BBX 6 10 0 0
BITMAP
FC
FC
CC
CC
FC
FC
0C
0C
0C
0C
ENDCHAR
STARTCHAR r
ENCODING 114
SWIDTH 888 0
DWIDTH 8 0
BBX 6 10 0 0
BITMAP
FC
FC
C0
C0
C0
C0
C0
C0
C0
C0
ENDCHAR
STARTCHAR s
ENCODING 115
SWIDTH 888 0
DWIDTH 8 0
BBX 6 10 0 0
BITMAP
FC
FC
C0
C0
FC
FC
0C
0C
FC
FC
ENDCHAR
STARTCHAR t
ENCODING 116
SWIDTH 888 0
DWIDTH 8 0
BBX 6 16 0 0
BITMAP
30
30
30
30
30
30
FC
FC
30
30
30
30
30
30
3C
3C
ENDCHAR
STARTCHAR u
ENCODING 117
SWIDTH 888 0
DWIDTH 8 0
BBX 6 10 0 0
BITMAP
CC
CC
CC
CC
CC
CC
CC
CC
FC
FC
ENDCHAR
STARTCHAR v
ENCODING 118
SWIDTH 888 0
DWIDTH 8 0
BBX 6 10 0 0
BITMAP
CC
CC
CC
CC
CC
CC
FC
FC
30
30
ENDCHAR
STARTCHAR w
ENCODING 119
SWIDTH 1333 0
DWIDTH 12 0
BBX 10 10 0 0
BITMAP
CCC0
CCC0
CCC0
CCC0
CCC0
CCC0
FFC0
FFC0
3300
3300
ENDCHAR
STARTCHAR x
ENCODING 120
SWIDTH 888 0
DWIDTH 8 0
BBX 6 10 0 0
BITMAP
CC
CC
CC
CC
30
30
CC
CC
CC
CC
ENDCHAR
STARTCHAR y
ENCODING 121
SWIDTH 888 0
DWIDTH 8 0
BBX 6 10 0 0
BITMAP
CC
CC
CC
CC
FC
FC
0C
0C
3C
3C
ENDCHAR
STARTCHAR z
ENCODING 122
SWIDTH 888 0
DWIDTH 8 0
BBX 6 10 0 0
BITMAP
FC
FC
0C
0C
30
30
C0
C0
FC
FC
ENDCHAR
STARTCHAR braceleft
ENCODING 123
SWIDTH 888 0
DWIDTH 8 0
BBX 6 16 0 0
BITMAP
3C
3C
30
30
30
30
F0
F0
30
30
30
30
30
30
3C
3C
ENDCHAR
STARTCHAR bar
ENCODING 124
SWIDTH 444 0
DWIDTH 4 0
BBX 2 16 0 0
BITMAP
C0
C0
C0
C0
C0
C0
C0
C0
C0
C0
C0
C0
C0
C0
C0
C0
ENDCHAR
STARTCHAR braceright
ENCODING 125
SWIDTH 888 0
DWIDTH 8 0
BBX 6 16 0 0
BITMAP
F0
F0
30
30
30
30
3C
3C
30
30
30
30
30
30
F0
F0
ENDCHAR
STARTCHAR asciitilde
ENCODING 126
SWIDTH 888 0
DWIDTH 8 0
BBX 6 4 0 6
BITMAP
3C
3C
F0
F0
ENDCHAR
STARTCHAR exclamdown
ENCODING 161
SWIDTH 444 0
DWIDTH 4 0
BBX 2 16 0 0
BITMAP
C0
C0
C0
C0
00
00
C0
C0
C0
C0
C0
C0
C0
C0
C0
C0
ENDCHAR
STARTCHAR cent
ENCODING 162
SWIDTH 888 0
DWIDTH 8 0
BBX 6 14 0 0
BITMAP
30
30
FC
FC
C0
C0
C0
C0
C0
C0
FC
FC
30
30
ENDCHAR
STARTCHAR sterling
ENCODING 163
SWIDTH 1111 0
DWIDTH 10 0
BBX 8 16 0 0
BITMAP
3F
3F
33
33
30
30
FC
FC
30
30
30
30
30
30
FF
FF
ENDCHAR
STARTCHAR currency
ENCODING 164
SWIDTH 1111 0
DWIDTH 10 0
BBX 8 12 0 2
BITMAP
FF
FF
3C
3C
C3
C3
C3
C3
3C
3C
FF
FF
ENDCHAR
STARTCHAR yen
ENCODING 165
SWIDTH 888 0
DWIDTH 8 0
BBX 6 16 0 0
BITMAP
CC
CC
CC
CC
FC
FC
30
30
FC
FC
30
30
30
30
30
30
ENDCHAR
STARTCHAR brokenbar
ENCODING 166
SWIDTH 444 0
DWIDTH 4 0
BBX 2 16 0 0
BITMAP
C0
C0
C0
C0
C0
C0
00
00
C0
C0
C0
C0
C0
C0
C0
C0
ENDCHAR
STARTCHAR section
ENCODING 167
SWIDTH 888 0
DWIDTH 8 0
BBX 6 16 0 0
BITMAP
3C
3C
C0
C0
FC
FC
CC
CC
CC
CC
FC
FC
0C
0C
F0
F0
ENDCHAR
STARTCHAR dieresis
ENCODING 168
SWIDTH 888 0
DWIDTH 8 0
BBX 6 16 0 0
BITMAP
30
30
FC
FC
CC
CC
F0
F0
CC
CC
CC
CC
FC
FC
30
30
ENDCHAR
STARTCHAR copyright
ENCODING 169
SWIDTH 1555 0
DWIDTH 14 0
BBX 12 14 0 2
BITMAP
3FC0
3FC0
F0F0
F0F0
CF30
CF30
CC30
CC30
CF30
CF30
F0F0
F0F0
3FC0
3FC0
ENDCHAR
STARTCHAR ordfeminine
ENCODING 170
SWIDTH 888 0
DWIDTH 8 0
BBX 6 10 0 6
BITMAP
3C
3C
CC
CC
FC
FC
00
00
FC
FC
ENDCHAR
STARTCHAR guillemotleft
ENCODING 171
SWIDTH 1111 0
DWIDTH 10 0
BBX 8 6 0 6
BITMAP
33
33
FF
FF
33
33
ENDCHAR
STARTCHAR logicalnot
ENCODING 172
SWIDTH 1333 0
DWIDTH 12 0
BBX 10 16 0 0
BITMAP
CFC0
CFC0
CCC0
CCC0
0C00
0C00
0C00
0C00
0C00
0C00
0CC0
0CC0
0CC0
0CC0
0FC0
0FC0
ENDCHAR
STARTCHAR uni00AD
ENCODING 173
SWIDTH 888 0
DWIDTH 8 0
BBX 6 2 0 8
BITMAP
FC
FC
ENDCHAR
STARTCHAR registered
ENCODING 174
SWIDTH 1555 0
DWIDTH 14 0
BBX 12 14 0 2
BITMAP
3FC0
3FC0
F0F0
F0F0
CF30
CF30
CC30
CC30
CC30
CC30
F0F0
F0F0
3FC0
3FC0
ENDCHAR
STARTCHAR macron
ENCODING 175
SWIDTH 1333 0
DWIDTH 12 0
BBX 10 16 0 0
BITMAP
CFC0
CFC0
CC00
CC00
0C00
0C00
0FC0
0FC0
0C00
0C00
0C00
0C00
0C00
0C00
0C00
0C00
ENDCHAR
STARTCHAR degree
ENCODING 176
SWIDTH 888 0
DWIDTH 8 0
BBX 6 6 0 10
BITMAP
FC
FC
CC
CC
FC
FC
ENDCHAR
STARTCHAR plusminus
ENCODING 177
SWIDTH 888 0
DWIDTH 8 0
BBX 6 10 0 4
BITMAP
30
30
FC
FC
30
30
00
00
FC
FC
ENDCHAR
STARTCHAR uni00B2
ENCODING 178
SWIDTH 666 0
DWIDTH 6 0
BBX 4 10 0 6
BITMAP
F0
F0
30
30
F0
F0
C0
C0
F0
F0
ENDCHAR
STARTCHAR uni00B3
ENCODING 179
SWIDTH 666 0
DWIDTH 6 0
BBX 4 10 0 6
BITMAP
F0
F0
30
30
F0
F0
30
30
F0
F0
ENDCHAR
STARTCHAR acute
ENCODING 180
SWIDTH 666 0
DWIDTH 6 0
BBX 4 4 0 12
BITMAP
30
30
F0
F0
ENDCHAR
STARTCHAR mu
ENCODING 181
SWIDTH 888 0
DWIDTH 8 0
BBX 6 12 0 0
BITMAP
CC
CC
CC
CC
CC
CC
CC
CC
FC
FC
C0
C0
ENDCHAR
STARTCHAR paragraph
ENCODING 182
SWIDTH 1111 0
DWIDTH 10 0
BBX 8 16 0 0
BITMAP
FF
FF
F3
F3
FF
FF
0F
0F
0F
0F
0F
0F
0F
0F
0F
0F
ENDCHAR
STARTCHAR periodcentered
ENCODING 183
SWIDTH 444 0
DWIDTH 4 0
BBX 2 2 0 8
BITMAP
C0
C0
ENDCHAR
STARTCHAR cedilla
ENCODING 184
SWIDTH 888 0
DWIDTH 8 0
BBX 6 16 0 0
BITMAP
FC
FC
00
00
00
00
FC
FC
00
00
00
00
00
00
FC
FC
ENDCHAR
STARTCHAR uni00B9
ENCODING 185
SWIDTH 444 0
DWIDTH 4 0
BBX 2 10 0 6
BITMAP
C0
C0
C0
C0
C0
C0
C0
C0
C0
C0
ENDCHAR
STARTCHAR ordmasculine
ENCODING 186
SWIDTH 888 0
DWIDTH 8 0
BBX 6 10 0 6
BITMAP
FC
FC
CC
CC
FC
FC
00
00
FC
FC
ENDCHAR
STARTCHAR guillemotright
ENCODING 187
SWIDTH 1111 0
DWIDTH 10 0
BBX 8 6 0 6
BITMAP
CC
CC
FF
FF
CC
CC
ENDCHAR
STARTCHAR onequarter
ENCODING 188
SWIDTH 1111 0
DWIDTH 10 0
BBX 8 16 0 0
BITMAP
0F
0F
3C
3C
30
30
FF
FF
30
30
30
30
3C
3C
0F
0F
ENDCHAR
STARTCHAR onehalf
ENCODING 189
SWIDTH 1777 0
DWIDTH 16 0
BBX 14 16 0 0
BITMAP
3330
3330
3330
3330
FFFC
FFFC
3330
3330
3330
3330
3330
3330
3FF0
3FF0
0CC0
0CC0
ENDCHAR
STARTCHAR threequarters
ENCODING 190
SWIDTH 1333 0
DWIDTH 12 0
BBX 10 16 0 0
BITMAP
3F00
3F00
3300
3300
0300
0300
FFC0
FFC0
3000
3000
3000
3000
3300
3300
3F00
3F00
ENDCHAR
STARTCHAR questiondown
ENCODING 191
SWIDTH 888 0
DWIDTH 8 0
BBX 6 16 0 0
BITMAP
30
30
00
00
30
30
30
30
F0
F0
C0
C0
CC
CC
FC
FC
ENDCHAR
STARTCHAR Agrave
ENCODING 192
SWIDTH 888 0
DWIDTH 8 0
BBX 6 16 0 0
BITMAP
C0
C0
30
30
00
00
FC
FC
CC
CC
FC
FC
CC
CC
CC
CC
ENDCHAR
STARTCHAR Aacute
ENCODING 193
SWIDTH 888 0
DWIDTH 8 0
BBX 6 16 0 0
BITMAP
0C
0C
30
30
00
00
FC
FC
CC
CC
FC
FC
CC
CC
CC
CC
ENDCHAR
STARTCHAR Acircumflex
ENCODING 194
SWIDTH 888 0
DWIDTH 8 0
BBX 6 16 0 0
BITMAP
30
30
CC
CC
00
00
FC
FC
CC
CC
FC
FC
CC
CC
CC
CC
ENDCHAR
STARTCHAR Atilde
ENCODING 195
SWIDTH 888 0
DWIDTH 8 0
BBX 6 16 0 0
BITMAP
FC
FC
00
00
FC
FC
CC
CC
FC
FC
CC
CC
CC
CC
CC
CC
ENDCHAR
STARTCHAR Adieresis
ENCODING 196
SWIDTH 888 0
DWIDTH 8 0
BBX 6 16 0 0
BITMAP
CC
CC
00
00
FC
FC
CC
CC
FC
FC
CC
CC
CC
CC
CC
CC
ENDCHAR
STARTCHAR Aring
ENCODING 197
SWIDTH 888 0
DWIDTH 8 0
BBX 6 16 0 0
BITMAP
30
30
00
00
FC
FC
CC
CC
FC
FC
CC
CC
CC
CC
CC
CC
ENDCHAR
STARTCHAR AE
ENCODING 198
SWIDTH 1333 0
DWIDTH 12 0
BBX 10 16 0 0
BITMAP
FFC0
FFC0
CC00
CC00
CC00
CC00
FFC0
FFC0
CC00
CC00
CC00
CC00
CC00
CC00
CFC0
CFC0
ENDCHAR
STARTCHAR Ccedilla
ENCODING 199
SWIDTH 888 0
DWIDTH 8 0
BBX 6 16 0 0
BITMAP
FC
FC
C0
C0
C0
C0
C0
C0
C0
C0
C0
C0
FC
FC
30
30
ENDCHAR
STARTCHAR Egrave
ENCODING 200
SWIDTH 888 0
DWIDTH 8 0
BBX 6 16 0 0
BITMAP
C0
C0
30
30
00
00
FC
FC
C0
C0
FC
FC
C0
C0
FC
FC
ENDCHAR
STARTCHAR Eacute
ENCODING 201
SWIDTH 888 0
DWIDTH 8 0
BBX 6 16 0 0
BITMAP
0C
0C
30
30
00
00
FC
FC
C0
C0
FC
FC
C0
C0
FC
FC
ENDCHAR
STARTCHAR Ecircumflex
ENCODING 202
SWIDTH 888 0
DWIDTH 8 0
BBX 6 16 0 0
BITMAP
30
30
CC
CC
00
00
FC
FC
C0
C0
FC
FC
C0
C0
FC
FC
ENDCHAR
STARTCHAR Edieresis
ENCODING 203
SWIDTH 888 0
DWIDTH 8 0
BBX 6 16 0 0
BITMAP
CC
CC
00
00
FC
FC
C0
C0
FC
FC
C0
C0
C0
C0
FC
FC
ENDCHAR
STARTCHAR Igrave
ENCODING 204
SWIDTH 888 0
DWIDTH 8 0
BBX 6 16 0 0
BITMAP
C0
C0
30
30
00
00
FC
FC
30
30
30
30
30
30
FC
FC
ENDCHAR
STARTCHAR Iacute
ENCODING 205
SWIDTH 888 0
DWIDTH 8 0
BBX 6 16 0 0
BITMAP
0C
0C
30
30
00
00
FC
FC
30
30
30
30
30
30
FC
FC
ENDCHAR
STARTCHAR Icircumflex
ENCODING 206
SWIDTH 888 0
DWIDTH 8 0
BBX 6 16 0 0
BITMAP
30
30
CC
CC
00
00
FC
FC
30
30
30
30
30
30
FC
FC
ENDCHAR
STARTCHAR Idieresis
ENCODING 207
SWIDTH 888 0
DWIDTH 8 0
BBX 6 16 0 0
BITMAP
CC
CC
00
00
FC
FC
30
30
30
30
30
30
30
30
FC
FC
ENDCHAR
STARTCHAR Eth
ENCODING 208
SWIDTH 1111 0
DWIDTH 10 0
BBX 8 16 0 0
BITMAP
3C
3C
33
33
33
33
FF
FF
33
33
33
33
33
33
3C
3C
ENDCHAR
STARTCHAR Ntilde
ENCODING 209
SWIDTH 1111 0
DWIDTH 10 0
BBX 8 16 0 0
BITMAP
3C
3C
00
00
C3
C3
F3
F3
CF
CF
C3
C3
C3
C3
C3
C3
ENDCHAR
STARTCHAR Ograve
ENCODING 210
SWIDTH 888 0
DWIDTH 8 0
BBX 6 16 0 0
BITMAP
30
30
0C
0C
00
00
FC
FC
CC
CC
CC
CC
CC
CC
FC
FC
ENDCHAR
STARTCHAR Oacute
ENCODING 211
SWIDTH 888 0
DWIDTH 8 0
BBX 6 16 0 0
BITMAP
30
30
C0
C0
00
00
FC
FC
CC
CC
CC
CC
CC
CC
FC
FC
ENDCHAR
STARTCHAR Ocircumflex
ENCODING 212
SWIDTH 888 0
DWIDTH 8 0
BBX 6 16 0 0
BITMAP
30
30
CC
CC
00
00
FC
FC
CC
CC
CC
CC
CC
CC
FC
FC
ENDCHAR
STARTCHAR Otilde
ENCODING 213
SWIDTH 888 0
DWIDTH 8 0
BBX 6 16 0 0
BITMAP
FC
FC
00
00
FC
FC
CC
CC
CC
CC
CC
CC
CC
CC
FC
FC
ENDCHAR
STARTCHAR Odieresis
ENCODING 214
SWIDTH 888 0
DWIDTH 8 0
BBX 6 16 0 0
BITMAP
CC
CC
00
00
FC
FC
CC
CC
CC
CC
CC
CC
CC
CC
FC
FC
ENDCHAR
STARTCHAR multiply
ENCODING 215
SWIDTH 888 0
DWIDTH 8 0
BBX 6 6 0 6
BITMAP
CC
CC
30
30
CC
CC
ENDCHAR
STARTCHAR Oslash
ENCODING 216
SWIDTH 1111 0
DWIDTH 10 0
BBX 8 16 0 0
BITMAP
FF
FF
C3
C3
C3
C3
CF
CF
F3
F3
C3
C3
C3
C3
FF
FF
ENDCHAR
STARTCHAR Ugrave
ENCODING 217
SWIDTH 888 0
DWIDTH 8 0
BBX 6 16 0 0
BITMAP
C0
C0
30
30
00
00
CC
CC
CC
CC
CC
CC
CC
CC
FC
FC
ENDCHAR
STARTCHAR Uacute
ENCODING 218
SWIDTH 888 0
DWIDTH 8 0
BBX 6 16 0 0
BITMAP
0C
0C
30
30
00
00
CC
CC
CC
CC
CC
CC
CC
CC
FC
FC
ENDCHAR
STARTCHAR Ucircumflex
ENCODING 219
SWIDTH 888 0
DWIDTH 8 0
BBX 6 16 0 0
BITMAP
30
30
CC
CC
00
00
CC
CC
CC
CC
CC
CC
CC
CC
FC
FC
ENDCHAR
STARTCHAR Udieresis
ENCODING 220
SWIDTH 888 0
DWIDTH 8 0
BBX 6 16 0 0
BITMAP
CC
CC
00
00
CC
CC
CC
CC
CC
CC
CC
CC
CC
CC
FC
FC
ENDCHAR
STARTCHAR Yacute
ENCODING 221
SWIDTH 888 0
DWIDTH 8 0
BBX 6 16 0 0
BITMAP
0C
0C
30
30
00
00
CC
CC
CC
CC
FC
FC
30
30
30
30
ENDCHAR
STARTCHAR Thorn
ENCODING 222
SWIDTH 888 0
DWIDTH 8 0
BBX 6 16 0 0
BITMAP
C0
C0
C0
C0
FC
FC
CC
CC
CC
CC
FC
FC
C0
C0
C0
C0
ENDCHAR
STARTCHAR germandbls
ENCODING 223
SWIDTH 888 0
DWIDTH 8 0
BBX 6 16 0 0
BITMAP
FC
FC
CC
CC
F0
F0
CC
CC
CC
CC
FC
FC
C0
C0
C0
C0
ENDCHAR
STARTCHAR agrave
ENCODING 224
SWIDTH 888 0
DWIDTH 8 0
BBX 6 16 0 0
BITMAP
30
30
0C
0C
00
00
FC
FC
0C
0C
FC
FC
CC
CC
FC
FC
ENDCHAR
STARTCHAR aacute
ENCODING 225
SWIDTH 888 0
DWIDTH 8 0
BBX 6 16 0 0
BITMAP
30
30
C0
C0
00
00
FC
FC
0C
0C
FC
FC
CC
CC
FC
FC
ENDCHAR
STARTCHAR acircumflex
ENCODING 226
SWIDTH 888 0
DWIDTH 8 0
BBX 6 16 0 0
BITMAP
30
30
CC
CC
00
00
FC
FC
0C
0C
FC
FC
CC
CC
FC
FC
ENDCHAR
STARTCHAR atilde
ENCODING 227
SWIDTH 888 0
DWIDTH 8 0
BBX 6 14 0 0
BITMAP
FC
FC
00
00
FC
FC
0C
0C
FC
FC
CC
CC
FC
FC
ENDCHAR
STARTCHAR adieresis
ENCODING 228
SWIDTH 888 0
DWIDTH 8 0
BBX 6 14 0 0
BITMAP
CC
CC
00
00
FC
FC
0C
0C
FC
FC
CC
CC
FC
FC
ENDCHAR
STARTCHAR aring
ENCODING 229
SWIDTH 888 0
DWIDTH 8 0
BBX 6 14 0 0
BITMAP
30
30
00
00
FC
FC
0C
0C
FC
FC
CC
CC
FC
FC
ENDCHAR
STARTCHAR ae
ENCODING 230
SWIDTH 1333 0
DWIDTH 12 0
BBX 10 10 0 0
BITMAP
FFC0
FFC0
0CC0
0CC0
FFC0
FFC0
CC00
CC00
FFC0
FFC0
ENDCHAR
STARTCHAR ccedilla
ENCODING 231
SWIDTH 888 0
DWIDTH 8 0
BBX 6 10 0 0
BITMAP
FC
FC
C0
C0
C0
C0
FC
FC
30
30
ENDCHAR
STARTCHAR egrave
ENCODING 232
SWIDTH 888 0
DWIDTH 8 0
BBX 6 16 0 0
BITMAP
30
30
0C
0C
00
00
FC
FC
CC
CC
FC
FC
C0
C0
FC
FC
ENDCHAR
STARTCHAR eacute
ENCODING 233
SWIDTH 888 0
DWIDTH 8 0
BBX 6 16 0 0
BITMAP
30
30
C0
C0
00
00
FC
FC
CC
CC
FC
FC
C0
C0
FC
FC
ENDCHAR
STARTCHAR ecircumflex
ENCODING 234
SWIDTH 888 0
DWIDTH 8 0
BBX 6 16 0 0
BITMAP
30
30
CC
CC
00
00
FC
FC
CC
CC
FC
FC
C0
C0
FC
FC
ENDCHAR
STARTCHAR edieresis
ENCODING 235
SWIDTH 888 0
DWIDTH 8 0
BBX 6 14 0 0
BITMAP
CC
CC
00
00
FC
FC
CC
CC
FC
FC
C0
C0
FC
FC
ENDCHAR
STARTCHAR igrave
ENCODING 236
SWIDTH 888 0
DWIDTH 8 0
BBX 6 16 0 0
BITMAP
C0
C0
30
30
00
00
F0
F0
30
30
30
30
30
30
FC
FC
ENDCHAR
STARTCHAR iacute
ENCODING 237
SWIDTH 888 0
DWIDTH 8 0
BBX 6 16 0 0
BITMAP
0C
0C
30
30
00
00
F0
F0
30
30
30
30
30
30
FC
FC
ENDCHAR
STARTCHAR icircumflex
ENCODING 238
SWIDTH 888 0
DWIDTH 8 0
BBX 6 16 0 0
BITMAP
30
30
CC
CC
00
00
F0
F0
30
30
30
30
30
30
FC
FC
ENDCHAR
STARTCHAR idieresis
ENCODING 239
SWIDTH 888 0
DWIDTH 8 0
BBX 6 14 0 0
BITMAP
CC
CC
00
00
F0
F0
30
30
30
30
30
30
FC
FC
ENDCHAR
STARTCHAR eth
ENCODING 240
SWIDTH 888 0
DWIDTH 8 0
BBX 6 16 0 0
BITMAP
CC
CC
30
30
CC
CC
0C
0C
FC
FC
CC
CC
CC
CC
FC
FC
ENDCHAR
STARTCHAR ntilde
ENCODING 241
SWIDTH 888 0
DWIDTH 8 0
BBX 6 14 0 0
BITMAP
FC
FC
00
00
FC
FC
CC
CC
CC
CC
CC
CC
CC
CC
ENDCHAR
STARTCHAR ograve
ENCODING 242
SWIDTH 888 0
DWIDTH 8 0
BBX 6 14 0 0
BITMAP
C0
C0
30
30
00
00
FC
FC
CC
CC
CC
CC
FC
FC
ENDCHAR
STARTCHAR oacute
ENCODING 243
SWIDTH 888 0
DWIDTH 8 0
BBX 6 14 0 0
BITMAP
0C
0C
30
30
00
00
FC
FC
CC
CC
CC
CC
FC
FC
ENDCHAR
STARTCHAR ocircumflex
ENCODING 244
SWIDTH 888 0
DWIDTH 8 0
BBX 6 14 0 0
BITMAP
30
30
CC
CC
00
00
FC
FC
CC
CC
CC
CC
FC
FC
ENDCHAR
STARTCHAR otilde
ENCODING 245
SWIDTH 888 0
DWIDTH 8 0
BBX 6 12 0 0
BITMAP
FC
FC
00
00
FC
FC
CC
CC
CC
CC
FC
FC
ENDCHAR
STARTCHAR odieresis
ENCODING 246
SWIDTH 888 0
DWIDTH 8 0
BBX 6 12 0 0
BITMAP
CC
CC
00
00
FC
FC
CC
CC
CC
CC
FC
FC
ENDCHAR
STARTCHAR divide
ENCODING 247
SWIDTH 888 0
DWIDTH 8 0
BBX 6 10 0 4
BITMAP
30
30
00
00
FC
FC
00
00
30
30
ENDCHAR
STARTCHAR oslash
ENCODING 248
SWIDTH 1111 0
DWIDTH 10 0
BBX 8 10 0 0
BITMAP
FF
FF
CF
CF
F3
F3
C3
C3
FF
FF
ENDCHAR
STARTCHAR ugrave
ENCODING 249
SWIDTH 888 0
DWIDTH 8 0
BBX 6 14 0 0
BITMAP
C0
C0
30
30
00
00
CC
CC
CC
CC
CC
CC
FC
FC
ENDCHAR
STARTCHAR uacute
ENCODING 250
SWIDTH 888 0
DWIDTH 8 0
BBX 6 14 0 0
BITMAP
0C
0C
30
30
00
00
CC
CC
CC
CC
CC
CC
FC
FC
ENDCHAR
STARTCHAR ucircumflex
ENCODING 251
SWIDTH 888 0
DWIDTH 8 0
BBX 6 14 0 0
BITMAP
30
30
CC
CC
00
00
CC
CC
CC
CC
CC
CC
FC
FC
ENDCHAR
STARTCHAR udieresis
ENCODING 252
SWIDTH 888 0
DWIDTH 8 0
BBX 6 12 0 0
BITMAP
CC
CC
00
00
CC
CC
CC
CC
CC
CC
FC
FC
ENDCHAR
STARTCHAR yacute
ENCODING 253
SWIDTH 888 0
DWIDTH 8 0
BBX 6 16 0 0
BITMAP
0C
0C
30
30
00
00
CC
CC
CC
CC
FC
FC
0C
0C
3C
3C
ENDCHAR
STARTCHAR thorn
ENCODING 254
SWIDTH 888 0
DWIDTH 8 0
BBX 6 16 0 0
BITMAP
C0
C0
C0
C0
C0
C0
FC
FC
CC
CC
CC
CC
FC
FC
C0
C0
ENDCHAR
STARTCHAR ydieresis
ENCODING 255
SWIDTH 888 0
DWIDTH 8 0
BBX 6 16 0 0
BITMAP
CC
CC
00
00
CC
CC
CC
CC
CC
CC
FC
FC
0C
0C
3C
3C
ENDCHAR
STARTCHAR Amacron
ENCODING 256
SWIDTH 888 0
DWIDTH 8 0
BBX 6 16 0 0
BITMAP
FC
FC
00
00
FC
FC
CC
CC
FC
FC
CC
CC
CC
CC
CC
CC
ENDCHAR
STARTCHAR amacron
ENCODING 257
SWIDTH 888 0
DWIDTH 8 0
BBX 6 14 0 0
BITMAP
FC
FC
00
00
FC
FC
0C
0C
FC
FC
CC
CC
FC
FC
ENDCHAR
STARTCHAR Abreve
ENCODING 258
SWIDTH 888 0
DWIDTH 8 0
BBX 6 16 0 0
BITMAP
CC
CC
30
30
00
00
FC
FC
CC
CC
FC
FC
CC
CC
CC
CC
ENDCHAR
STARTCHAR abreve
ENCODING 259
SWIDTH 888 0
DWIDTH 8 0
BBX 6 16 0 0
BITMAP
CC
CC
30
30
00
00
FC
FC
0C
0C
FC
FC
CC
CC
FC
FC
ENDCHAR
STARTCHAR Aogonek
ENCODING 260
SWIDTH 888 0
DWIDTH 8 0
BBX 8 16 0 0
BITMAP
FC
FC
CC
CC
CC
CC
FC
FC
CC
CC
CC
CC
CC
CC
0F
0F
ENDCHAR
STARTCHAR aogonek
ENCODING 261
SWIDTH 888 0
DWIDTH 8 0
BBX 8 12 0 0
BITMAP
FC
FC
0C
0C
FC
FC
CC
CC
FC
FC
0F
0F
ENDCHAR
STARTCHAR Cacute
ENCODING 262
SWIDTH 888 0
DWIDTH 8 0
BBX 6 16 0 0
BITMAP
30
30
C0
C0
00
00
FC
FC
C0
C0
C0
C0
C0
C0
FC
FC
ENDCHAR
STARTCHAR cacute
ENCODING 263
SWIDTH 888 0
DWIDTH 8 0
BBX 6 14 0 0
BITMAP
30
30
C0
C0
00
00
FC
FC
C0
C0
C0
C0
FC
FC
ENDCHAR
STARTCHAR Ccircumflex
ENCODING 264
SWIDTH 888 0
DWIDTH 8 0
BBX 6 16 0 0
BITMAP
30
30
CC
CC
00
00
FC
FC
C0
C0
C0
C0
C0
C0
FC
FC
ENDCHAR
STARTCHAR ccircumflex
ENCODING 265
SWIDTH 888 0
DWIDTH 8 0
BBX 6 14 0 0
BITMAP
30
30
CC
CC
00
00
FC
FC
C0
C0
C0
C0
FC
FC
ENDCHAR
STARTCHAR Cdotaccent
ENCODING 266
SWIDTH 888 0
DWIDTH 8 0
BBX 6 16 0 0
BITMAP
30
30
00
00
FC
FC
C0
C0
C0
C0
C0
C0
C0
C0
FC
FC
ENDCHAR
STARTCHAR cdotaccent
ENCODING 267
SWIDTH 888 0
DWIDTH 8 0
BBX 6 14 0 0
BITMAP
30
30
00
00
FC
FC
C0
C0
C0
C0
C0
C0
FC
FC
ENDCHAR
STARTCHAR Ccaron
ENCODING 268
SWIDTH 888 0
DWIDTH 8 0
BBX 6 16 0 0
BITMAP
CC
CC
30
30
00
00
FC
FC
C0
C0
C0
C0
C0
C0
FC
FC
ENDCHAR
STARTCHAR ccaron
ENCODING 269
SWIDTH 888 0
DWIDTH 8 0
BBX 6 14 0 0
BITMAP
CC
CC
30
30
00
00
FC
FC
C0
C0
C0
C0
FC
FC
ENDCHAR
STARTCHAR Dcaron
ENCODING 270
SWIDTH 888 0
DWIDTH 8 0
BBX 6 16 0 0
BITMAP
CC
CC
30
30
00
00
F0
F0
CC
CC
CC
CC
CC
CC
FC
FC
ENDCHAR
STARTCHAR dcaron
ENCODING 271
SWIDTH 1111 0
DWIDTH 10 0
BBX 8 16 0 0
BITMAP
0F
0F
0F
0F
0C
0C
FC
FC
CC
CC
CC
CC
CC
CC
FC
FC
ENDCHAR
STARTCHAR Dcroat
ENCODING 272
SWIDTH 1111 0
DWIDTH 10 0
BBX 8 16 0 0
BITMAP
3C
3C
33
33
33
33
FF
FF
33
33
33
33
33
33
3F
3F
ENDCHAR
STARTCHAR dcroat
ENCODING 273
SWIDTH 1111 0
DWIDTH 10 0
BBX 8 16 0 0
BITMAP
0C
0C
3F
3F
0C
0C
FC
FC
CC
CC
CC
CC
CC
CC
FC
FC
ENDCHAR
STARTCHAR Emacron
ENCODING 274
SWIDTH 888 0
DWIDTH 8 0
BBX 6 16 0 0
BITMAP
FC
FC
00
00
FC
FC
C0
C0
FC
FC
C0
C0
C0
C0
FC
FC
ENDCHAR
STARTCHAR emacron
ENCODING 275
SWIDTH 888 0
DWIDTH 8 0
BBX 6 14 0 0
BITMAP
FC
FC
00
00
FC
FC
CC
CC
FC
FC
C0
C0
FC
FC
ENDCHAR
STARTCHAR Ebreve
ENCODING 276
SWIDTH 888 0
DWIDTH 8 0
BBX 6 16 0 0
BITMAP
CC
CC
30
30
00
00
FC
FC
C0
C0
FC
FC
C0
C0
FC
FC
ENDCHAR
STARTCHAR ebreve
ENCODING 277
SWIDTH 888 0
DWIDTH 8 0
BBX 6 16 0 0
BITMAP
CC
CC
30
30
00
00
FC
FC
CC
CC
FC
FC
C0
C0
FC
FC
ENDCHAR
STARTCHAR Edotaccent
ENCODING 278
SWIDTH 888 0
DWIDTH 8 0
BBX 6 16 0 0
BITMAP
30
30
00
00
FC
FC
C0
C0
FC
FC
C0
C0
C0
C0
FC
FC
ENDCHAR
STARTCHAR edotaccent
ENCODING 279
SWIDTH 888 0
DWIDTH 8 0
BBX 6 14 0 0
BITMAP
30
30
00
00
FC
FC
CC
CC
FC
FC
C0
C0
FC
FC
ENDCHAR
STARTCHAR Eogonek
ENCODING 280
SWIDTH 888 0
DWIDTH 8 0
BBX 8 16 0 0
BITMAP
FC
FC
C0
C0
C0
C0
FC
FC
C0
C0
C0
C0
FC
FC
0F
0F
ENDCHAR
STARTCHAR eogonek
ENCODING 281
SWIDTH 888 0
DWIDTH 8 0
BBX 6 12 0 0
BITMAP
FC
FC
CC
CC
FC
FC
C0
C0
FC
FC
30
30
ENDCHAR
STARTCHAR Ecaron
ENCODING 282
SWIDTH 888 0
DWIDTH 8 0
BBX 6 16 0 0
BITMAP
CC
CC
30
30
00
00
FC
FC
C0
C0
FC
FC
C0
C0
FC
FC
ENDCHAR
STARTCHAR ecaron
ENCODING 283
SWIDTH 888 0
DWIDTH 8 0
BBX 6 16 0 0
BITMAP
CC
CC
30
30
00
00
FC
FC
CC
CC
FC
FC
C0
C0
FC
FC
ENDCHAR
STARTCHAR Gcircumflex
ENCODING 284
SWIDTH 1111 0
DWIDTH 10 0
BBX 8 16 0 0
BITMAP
30
30
CC
CC
00
00
FC
FC
C0
C0
CF
CF
C3
C3
FF
FF
ENDCHAR
STARTCHAR gcircumflex
ENCODING 285
SWIDTH 888 0
DWIDTH 8 0
BBX 6 16 0 0
BITMAP
30
30
CC
CC
00
00
FC
FC
CC
CC
FC
FC
0C
0C
3C
3C
ENDCHAR
STARTCHAR Gbreve
ENCODING 286
SWIDTH 1111 0
DWIDTH 10 0
BBX 8 16 0 0
BITMAP
CC
CC
30
30
00
00
FC
FC
C0
C0
CF
CF
C3
C3
FF
FF
ENDCHAR
STARTCHAR gbreve
ENCODING 287
SWIDTH 888 0
DWIDTH 8 0
BBX 6 16 0 0
BITMAP
CC
CC
30
30
00
00
FC
FC
CC
CC
FC
FC
0C
0C
3C
3C
ENDCHAR
STARTCHAR Gdotaccent
ENCODING 288
SWIDTH 1111 0
DWIDTH 10 0
BBX 8 16 0 0
BITMAP
30
30
00
00
FC
FC
C0
C0
C0
C0
CF
CF
C3
C3
FF
FF
ENDCHAR
STARTCHAR gdotaccent
ENCODING 289
SWIDTH 888 0
DWIDTH 8 0
BBX 6 14 0 0
BITMAP
30
30
00
00
FC
FC
CC
CC
FC
FC
0C
0C
3C
3C
ENDCHAR
STARTCHAR uni0122
ENCODING 290
SWIDTH 1111 0
DWIDTH 10 0
BBX 8 16 0 0
BITMAP
FC
FC
C0
C0
C0
C0
CF
CF
C3
C3
C3
C3
FF
FF
30
30
ENDCHAR
STARTCHAR uni0123
ENCODING 291
SWIDTH 888 0
DWIDTH 8 0
BBX 6 16 0 0
BITMAP
30
30
30
30
00
00
FC
FC
CC
CC
FC
FC
0C
0C
3C
3C
ENDCHAR
STARTCHAR Hcircumflex
ENCODING 292
SWIDTH 888 0
DWIDTH 8 0
BBX 6 16 0 0
BITMAP
30
30
CC
CC
00
00
CC
CC
CC
CC
FC
FC
CC
CC
CC
CC
ENDCHAR
STARTCHAR hcircumflex
ENCODING 293
SWIDTH 888 0
DWIDTH 8 0
BBX 6 16 0 0
BITMAP
30
30
CC
CC
00
00
C0
C0
C0
C0
FC
FC
CC
CC
CC
CC
ENDCHAR
STARTCHAR Hbar
ENCODING 294
SWIDTH 1333 0
DWIDTH 12 0
BBX 10 16 0 0
BITMAP
3300
3300
FFC0
FFC0
3300
3300
3F00
3F00
3300
3300
3300
3300
3300
3300
3300
3300
ENDCHAR
STARTCHAR hbar
ENCODING 295
SWIDTH 1111 0
DWIDTH 10 0
BBX 8 16 0 0
BITMAP
30
30
FC
FC
30
30
30
30
3F
3F
33
33
33
33
33
33
ENDCHAR
STARTCHAR Itilde
ENCODING 296
SWIDTH 888 0
DWIDTH 8 0
BBX 6 16 0 0
BITMAP
FC
FC
00
00
FC
FC
30
30
30
30
30
30
30
30
FC
FC
ENDCHAR
STARTCHAR itilde
ENCODING 297
SWIDTH 888 0
DWIDTH 8 0
BBX 6 14 0 0
BITMAP
FC
FC
00
00
F0
F0
30
30
30
30
30
30
FC
FC
ENDCHAR
STARTCHAR Imacron
ENCODING 298
SWIDTH 888 0
DWIDTH 8 0
BBX 6 16 0 0
BITMAP
FC
FC
00
00
FC
FC
30
30
30
30
30
30
30
30
FC
FC
ENDCHAR
STARTCHAR imacron
ENCODING 299
SWIDTH 888 0
DWIDTH 8 0
BBX 6 14 0 0
BITMAP
FC
FC
00
00
F0
F0
30
30
30
30
30
30
FC
FC
ENDCHAR
STARTCHAR Ibreve
ENCODING 300
SWIDTH 888 0
DWIDTH 8 0
BBX 6 16 0 0
BITMAP
CC
CC
30
30
00
00
FC
FC
30
30
30
30
30
30
FC
FC
ENDCHAR
STARTCHAR ibreve
ENCODING 301
SWIDTH 888 0
DWIDTH 8 0
BBX 6 16 0 0
BITMAP
CC
CC
30
30
00
00
F0
F0
30
30
30
30
30
30
FC
FC
ENDCHAR
STARTCHAR Iogonek
ENCODING 302
SWIDTH 888 0
DWIDTH 8 0
BBX 6 16 0 0
BITMAP
FC
FC
30
30
30
30
30
30
30
30
30
30
FC
FC
30
30
ENDCHAR
STARTCHAR iogonek
ENCODING 303
SWIDTH 888 0
DWIDTH 8 0
BBX 6 14 0 0
BITMAP
30
30
00
00
F0
F0
30
30
30
30
FC
FC
0C
0C
ENDCHAR
STARTCHAR Idotaccent
ENCODING 304
SWIDTH 888 0
DWIDTH 8 0
BBX 6 16 0 0
BITMAP
30
30
00
00
FC
FC
30
30
30
30
30
30
30
30
FC
FC
ENDCHAR
STARTCHAR dotlessi
ENCODING 305
SWIDTH 888 0
DWIDTH 8 0
BBX 6 10 0 0
BITMAP
F0
F0
30
30
30
30
30
30
FC
FC
ENDCHAR
STARTCHAR IJ
ENCODING 306
SWIDTH 1555 0
DWIDTH 14 0
BBX 12 16 0 0
BITMAP
FC30
FC30
3030
3030
3030
3030
3030
3030
3030
3030
3330
3330
3330
3330
FFF0
FFF0
ENDCHAR
STARTCHAR ij
ENCODING 307
SWIDTH 1111 0
DWIDTH 10 0
BBX 10 14 -2 0
BITMAP
30C0
30C0
0000
0000
F0C0
F0C0
30C0
30C0
30C0
30C0
3CC0
3CC0
FFC0
FFC0
ENDCHAR
STARTCHAR Jcircumflex
ENCODING 308
SWIDTH 1111 0
DWIDTH 10 0
BBX 8 16 0 0
BITMAP
0C
0C
33
33
00
00
0C
0C
0C
0C
CC
CC
CC
CC
FC
FC
ENDCHAR
STARTCHAR jcircumflex
ENCODING 309
SWIDTH 1111 0
DWIDTH 10 0
BBX 8 14 0 0
BITMAP
0C
0C
33
33
00
00
0C
0C
0C
0C
CC
CC
FC
FC
ENDCHAR
STARTCHAR uni0136
ENCODING 310
SWIDTH 888 0
DWIDTH 8 0
BBX 6 16 0 0
BITMAP
CC
CC
CC
CC
CC
CC
F0
F0
CC
CC
CC
CC
CC
CC
30
30
ENDCHAR
STARTCHAR uni0137
ENCODING 311
SWIDTH 888 0
DWIDTH 8 0
BBX 6 16 0 0
BITMAP
C0
C0
C0
C0
CC
CC
CC
CC
F0
F0
CC
CC
CC
CC
30
30
ENDCHAR
STARTCHAR kgreenlandic
ENCODING 312
SWIDTH 888 0
DWIDTH 8 0
BBX 6 12 0 0
BITMAP
CC
CC
CC
CC
F0
F0
CC
CC
CC
CC
CC
CC
ENDCHAR
STARTCHAR Lacute
ENCODING 313
SWIDTH 888 0
DWIDTH 8 0
BBX 6 16 0 0
BITMAP
30
30
C0
C0
00
00
C0
C0
C0
C0
C0
C0
C0
C0
FC
FC
ENDCHAR
STARTCHAR lacute
ENCODING 314
SWIDTH 888 0
DWIDTH 8 0
BBX 6 16 0 0
BITMAP
30
30
C0
C0
00
00
F0
F0
30
30
30
30
30
30
FC
FC
ENDCHAR
STARTCHAR uni013B
ENCODING 315
SWIDTH 888 0
DWIDTH 8 0
BBX 6 16 0 0
BITMAP
C0
C0
C0
C0
C0
C0
C0
C0
C0
C0
C0
C0
FC
FC
30
30
ENDCHAR
STARTCHAR uni013C
ENCODING 316
SWIDTH 888 0
DWIDTH 8 0
BBX 6 16 0 0
BITMAP
F0
F0
30
30
30
30
30
30
30
30
30
30
FC
FC
30
30
ENDCHAR
STARTCHAR Lcaron
ENCODING 317
SWIDTH 888 0
DWIDTH 8 0
BBX 6 16 0 0
BITMAP
CC
CC
CC
CC
C0
C0
C0
C0
C0
C0
C0
C0
C0
C0
FC
FC
ENDCHAR
STARTCHAR lcaron
ENCODING 318
SWIDTH 1111 0
DWIDTH 10 0
BBX 8 16 0 0
BITMAP
F3
F3
33
33
30
30
30
30
30
30
30
30
30
30
FC
FC
ENDCHAR
STARTCHAR Ldot
ENCODING 319
SWIDTH 888 0
DWIDTH 8 0
BBX 6 16 0 0
BITMAP
C0
C0
C0
C0
CC
CC
C0
C0
C0
C0
C0
C0
C0
C0
FC
FC
ENDCHAR
STARTCHAR ldot
ENCODING 320
SWIDTH 888 0
DWIDTH 8 0
BBX 6 16 0 0
BITMAP
F0
F0
30
30
3C
3C
30
30
30
30
30
30
30
30
FC
FC
ENDCHAR
STARTCHAR Lslash
ENCODING 321
SWIDTH 1111 0
DWIDTH 10 0
BBX 8 16 0 0
BITMAP
30
30
30
30
3C
3C
F0
F0
30
30
30
30
30
30
3F
3F
ENDCHAR
STARTCHAR lslash
ENCODING 322
SWIDTH 888 0
DWIDTH 8 0
BBX 6 16 0 0
BITMAP
F0
F0
30
30
3C
3C
F0
F0
30
30
30
30
30
30
FC
FC
ENDCHAR
STARTCHAR Nacute
ENCODING 323
SWIDTH 1111 0
DWIDTH 10 0
BBX 8 16 0 0
BITMAP
0C
0C
30
30
00
00
C3
C3
F3
F3
CF
CF
C3
C3
C3
C3
ENDCHAR
STARTCHAR nacute
ENCODING 324
SWIDTH 888 0
DWIDTH 8 0
BBX 6 16 0 0
BITMAP
0C
0C
30
30
00
00
FC
FC
CC
CC
CC
CC
CC
CC
CC
CC
ENDCHAR
STARTCHAR uni0145
ENCODING 325
SWIDTH 1111 0
DWIDTH 10 0
BBX 8 16 0 0
BITMAP
C3
C3
C3
C3
F3
F3
CF
CF
C3
C3
C3
C3
C3
C3
30
30
ENDCHAR
STARTCHAR uni0146
ENCODING 326
SWIDTH 888 0
DWIDTH 8 0
BBX 6 10 0 0
BITMAP
FC
FC
CC
CC
CC
CC
CC
CC
30
30
ENDCHAR
STARTCHAR Ncaron
ENCODING 327
SWIDTH 1111 0
DWIDTH 10 0
BBX 8 16 0 0
BITMAP
CC
CC
30
30
00
00
C3
C3
F3
F3
CF
CF
C3
C3
C3
C3
ENDCHAR
STARTCHAR ncaron
ENCODING 328
SWIDTH 888 0
DWIDTH 8 0
BBX 6 16 0 0
BITMAP
CC
CC
30
30
00
00
FC
FC
CC
CC
CC
CC
CC
CC
CC
CC
ENDCHAR
STARTCHAR napostrophe
ENCODING 329
SWIDTH 1111 0
DWIDTH 10 0
BBX 8 16 0 0
BITMAP
C0
C0
C0
C0
00
00
3F
3F
33
33
33
33
33
33
33
33
ENDCHAR
STARTCHAR Eng
ENCODING 330
SWIDTH 1111 0
DWIDTH 10 0
BBX 8 16 0 0
BITMAP
FF
FF
C3
C3
C3
C3
C3
C3
C3
C3
C3
C3
C3
C3
0C
0C
ENDCHAR
STARTCHAR eng
ENCODING 331
SWIDTH 888 0
DWIDTH 8 0
BBX 6 12 0 0
BITMAP
FC
FC
CC
CC
CC
CC
CC
CC
CC
CC
0C
0C
ENDCHAR
STARTCHAR Omacron
ENCODING 332
SWIDTH 888 0
DWIDTH 8 0
BBX 6 16 0 0
BITMAP
FC
FC
00
00
FC
FC
CC
CC
CC
CC
CC
CC
CC
CC
FC
FC
ENDCHAR
STARTCHAR omacron
ENCODING 333
SWIDTH 888 0
DWIDTH 8 0
BBX 6 14 0 0
BITMAP
FC
FC
00
00
FC
FC
CC
CC
CC
CC
CC
CC
FC
FC
ENDCHAR
STARTCHAR Obreve
ENCODING 334
SWIDTH 888 0
DWIDTH 8 0
BBX 6 16 0 0
BITMAP
CC
CC
30
30
00
00
FC
FC
CC
CC
CC
CC
CC
CC
FC
FC
ENDCHAR
STARTCHAR obreve
ENCODING 335
SWIDTH 888 0
DWIDTH 8 0
BBX 6 14 0 0
BITMAP
CC
CC
30
30
00
00
FC
FC
CC
CC
CC
CC
FC
FC
ENDCHAR
STARTCHAR Ohungarumlaut
ENCODING 336
SWIDTH 888 0
DWIDTH 8 0
BBX 6 16 0 0
BITMAP
CC
CC
00
00
FC
FC
CC
CC
CC
CC
CC
CC
CC
CC
FC
FC
ENDCHAR
STARTCHAR ohungarumlaut
ENCODING 337
SWIDTH 888 0
DWIDTH 8 0
BBX 6 14 0 0
BITMAP
CC
CC
00
00
FC
FC
CC
CC
CC
CC
CC
CC
FC
FC
ENDCHAR
STARTCHAR OE
ENCODING 338
SWIDTH 1333 0
DWIDTH 12 0
BBX 10 16 0 0
BITMAP
FFC0
FFC0
CC00
CC00
CC00
CC00
CFC0
CFC0
CC00
CC00
CC00
CC00
CC00
CC00
FFC0
FFC0
ENDCHAR
STARTCHAR oe
ENCODING 339
SWIDTH 1333 0
DWIDTH 12 0
BBX 10 10 0 0
BITMAP
FFC0
FFC0
CCC0
CCC0
CFC0
CFC0
CC00
CC00
FFC0
FFC0
ENDCHAR
STARTCHAR Racute
ENCODING 340
SWIDTH 888 0
DWIDTH 8 0
BBX 6 16 0 0
BITMAP
0C
0C
30
30
00
00
FC
FC
CC
CC
F0
F0
CC
CC
CC
CC
ENDCHAR
STARTCHAR racute
ENCODING 341
SWIDTH 888 0
DWIDTH 8 0
BBX 6 16 0 0
BITMAP
0C
0C
30
30
00
00
FC
FC
C0
C0
C0
C0
C0
C0
C0
C0
ENDCHAR
STARTCHAR uni0156
ENCODING 342
SWIDTH 888 0
DWIDTH 8 0
BBX 6 16 0 0
BITMAP
FC
FC
CC
CC
CC
CC
F0
F0
CC
CC
CC
CC
CC
CC
30
30
ENDCHAR
STARTCHAR uni0157
ENCODING 343
SWIDTH 888 0
DWIDTH 8 0
BBX 6 12 0 0
BITMAP
FC
FC
C0
C0
C0
C0
C0
C0
C0
C0
30
30
ENDCHAR
STARTCHAR Rcaron
ENCODING 344
SWIDTH 888 0
DWIDTH 8 0
BBX 6 16 0 0
BITMAP
CC
CC
30
30
00
00
FC
FC
CC
CC
F0
F0
CC
CC
CC
CC
ENDCHAR
STARTCHAR rcaron
ENCODING 345
SWIDTH 888 0
DWIDTH 8 0
BBX 6 16 0 0
BITMAP
CC
CC
30
30
00
00
FC
FC
C0
C0
C0
C0
C0
C0
C0
C0
ENDCHAR
STARTCHAR Sacute
ENCODING 346
SWIDTH 888 0
DWIDTH 8 0
BBX 6 16 0 0
BITMAP
30
30
C0
C0
00
00
FC
FC
C0
C0
FC
FC
0C
0C
FC
FC
ENDCHAR
STARTCHAR sacute
ENCODING 347
SWIDTH 888 0
DWIDTH 8 0
BBX 6 16 0 0
BITMAP
0C
0C
30
30
00
00
FC
FC
C0
C0
FC
FC
0C
0C
FC
FC
ENDCHAR
STARTCHAR Scircumflex
ENCODING 348
SWIDTH 888 0
DWIDTH 8 0
BBX 6 16 0 0
BITMAP
30
30
CC
CC
00
00
FC
FC
C0
C0
FC
FC
0C
0C
FC
FC
ENDCHAR
STARTCHAR scircumflex
ENCODING 349
SWIDTH 888 0
DWIDTH 8 0
BBX 6 16 0 0
BITMAP
30
30
CC
CC
00
00
FC
FC
C0
C0
FC
FC
0C
0C
FC
FC
ENDCHAR
STARTCHAR Scedilla
ENCODING 350
SWIDTH 888 0
DWIDTH 8 0
BBX 6 16 0 0
BITMAP
FC
FC
C0
C0
C0
C0
FC
FC
0C
0C
0C
0C
FC
FC
30
30
ENDCHAR
STARTCHAR scedilla
ENCODING 351
SWIDTH 888 0
DWIDTH 8 0
BBX 6 12 0 0
BITMAP
FC
FC
C0
C0
FC
FC
0C
0C
FC
FC
30
30
ENDCHAR
STARTCHAR Scaron
ENCODING 352
SWIDTH 888 0
DWIDTH 8 0
BBX 6 16 0 0
BITMAP
CC
CC
30
30
00
00
FC
FC
C0
C0
FC
FC
0C
0C
FC
FC
ENDCHAR
STARTCHAR scaron
ENCODING 353
SWIDTH 888 0
DWIDTH 8 0
BBX 6 16 0 0
BITMAP
CC
CC
30
30
00
00
FC
FC
C0
C0
FC
FC
0C
0C
FC
FC
ENDCHAR
STARTCHAR uni0162
ENCODING 354
SWIDTH 888 0
DWIDTH 8 0
BBX 6 16 0 0
BITMAP
FC
FC
30
30
30
30
30
30
30
30
30
30
3C
3C
0C
0C
ENDCHAR
STARTCHAR uni0163
ENCODING 355
SWIDTH 888 0
DWIDTH 8 0
BBX 6 16 0 0
BITMAP
30
30
30
30
FC
FC
30
30
30
30
30
30
3C
3C
0C
0C
ENDCHAR
STARTCHAR Tcaron
ENCODING 356
SWIDTH 888 0
DWIDTH 8 0
BBX 6 16 0 0
BITMAP
FC
FC
00
00
FC
FC
30
30
30
30
30
30
30
30
30
30
ENDCHAR
STARTCHAR tcaron
ENCODING 357
SWIDTH 1111 0
DWIDTH 10 0
BBX 8 16 0 0
BITMAP
33
33
33
33
30
30
FC
FC
30
30
30
30
30
30
3C
3C
ENDCHAR
STARTCHAR Tbar
ENCODING 358
SWIDTH 888 0
DWIDTH 8 0
BBX 6 16 0 0
BITMAP
FC
FC
30
30
30
30
FC
FC
30
30
30
30
30
30
30
30
ENDCHAR
STARTCHAR tbar
ENCODING 359
SWIDTH 888 0
DWIDTH 8 0
BBX 6 16 0 0
BITMAP
30
30
30
30
FC
FC
30
30
FC
FC
30
30
30
30
3C
3C
ENDCHAR
STARTCHAR Utilde
ENCODING 360
SWIDTH 888 0
DWIDTH 8 0
BBX 6 16 0 0
BITMAP
FC
FC
00
00
CC
CC
CC
CC
CC
CC
CC
CC
CC
CC
FC
FC
ENDCHAR
STARTCHAR utilde
ENCODING 361
SWIDTH 888 0
DWIDTH 8 0
BBX 6 14 0 0
BITMAP
FC
FC
00
00
CC
CC
CC
CC
CC
CC
CC
CC
FC
FC
ENDCHAR
STARTCHAR Umacron
ENCODING 362
SWIDTH 888 0
DWIDTH 8 0
BBX 6 16 0 0
BITMAP
FC
FC
00
00
CC
CC
CC
CC
CC
CC
CC
CC
CC
CC
FC
FC
ENDCHAR
STARTCHAR umacron
ENCODING 363
SWIDTH 888 0
DWIDTH 8 0
BBX 6 14 0 0
BITMAP
FC
FC
00
00
CC
CC
CC
CC
CC
CC
CC
CC
FC
FC
ENDCHAR
STARTCHAR Ubreve
ENCODING 364
SWIDTH 888 0
DWIDTH 8 0
BBX 6 16 0 0
BITMAP
CC
CC
30
30
00
00
CC
CC
CC
CC
CC
CC
CC
CC
FC
FC
ENDCHAR
STARTCHAR ubreve
ENCODING 365
SWIDTH 888 0
DWIDTH 8 0
BBX 6 14 0 0
BITMAP
CC
CC
30
30
00
00
CC
CC
CC
CC
CC
CC
FC
FC
ENDCHAR
STARTCHAR Uring
ENCODING 366
SWIDTH 888 0
DWIDTH 8 0
BBX 6 16 0 0
BITMAP
30
30
00
00
CC
CC
CC
CC
CC
CC
CC
CC
CC
CC
FC
FC
ENDCHAR
STARTCHAR uring
ENCODING 367
SWIDTH 888 0
DWIDTH 8 0
BBX 6 14 0 0
BITMAP
30
30
00
00
CC
CC
CC
CC
CC
CC
CC
CC
FC
FC
ENDCHAR
STARTCHAR Uhungarumlaut
ENCODING 368
SWIDTH 888 0
DWIDTH 8 0
BBX 6 16 0 0
BITMAP
CC
CC
00
00
CC
CC
CC
CC
CC
CC
CC
CC
CC
CC
FC
FC
ENDCHAR
STARTCHAR uhungarumlaut
ENCODING 369
SWIDTH 888 0
DWIDTH 8 0
BBX 6 14 0 0
BITMAP
CC
CC
00
00
CC
CC
CC
CC
CC
CC
CC
CC
FC
FC
ENDCHAR
STARTCHAR Uogonek
ENCODING 370
SWIDTH 888 0
DWIDTH 8 0
BBX 6 16 0 0
BITMAP
CC
CC
CC
CC
CC
CC
CC
CC
CC
CC
CC
CC
FC
FC
0C
0C
ENDCHAR
STARTCHAR uogonek
ENCODING 371
SWIDTH 888 0
DWIDTH 8 0
BBX 6 10 0 0
BITMAP
CC
CC
CC
CC
CC
CC
FC
FC
0C
0C
ENDCHAR
STARTCHAR Wcircumflex
ENCODING 372
SWIDTH 1333 0
DWIDTH 12 0
BBX 10 16 0 0
BITMAP
0C00
0C00
3300
3300
0000
0000
CCC0
CCC0
CCC0
CCC0
CCC0
CCC0
FFC0
FFC0
3300
3300
ENDCHAR
STARTCHAR wcircumflex
ENCODING 373
SWIDTH 1333 0
DWIDTH 12 0
BBX 10 14 0 0
BITMAP
0C00
0C00
3300
3300
0000
0000
CCC0
CCC0
CCC0
CCC0
FFC0
FFC0
3300
3300
ENDCHAR
STARTCHAR Ycircumflex
ENCODING 374
SWIDTH 888 0
DWIDTH 8 0
BBX 6 16 0 0
BITMAP
30
30
CC
CC
00
00
CC
CC
CC
CC
FC
FC
30
30
30
30
ENDCHAR
STARTCHAR ycircumflex
ENCODING 375
SWIDTH 888 0
DWIDTH 8 0
BBX 6 16 0 0
BITMAP
30
30
CC
CC
00
00
CC
CC
CC
CC
FC
FC
0C
0C
3C
3C
ENDCHAR
STARTCHAR Ydieresis
ENCODING 376
SWIDTH 888 0
DWIDTH 8 0
BBX 6 16 0 0
BITMAP
CC
CC
00
00
CC
CC
CC
CC
FC
FC
30
30
30
30
30
30
ENDCHAR
STARTCHAR Zacute
ENCODING 377
SWIDTH 888 0
DWIDTH 8 0
BBX 6 16 0 0
BITMAP
0C
0C
30
30
00
00
FC
FC
0C
0C
30
30
C0
C0
FC
FC
ENDCHAR
STARTCHAR zacute
ENCODING 378
SWIDTH 888 0
DWIDTH 8 0
BBX 6 16 0 0
BITMAP
0C
0C
30
30
00
00
FC
FC
0C
0C
30
30
C0
C0
FC
FC
ENDCHAR
STARTCHAR Zdotaccent
ENCODING 379
SWIDTH 888 0
DWIDTH 8 0
BBX 6 16 0 0
BITMAP
30
30
00
00
FC
FC
0C
0C
30
30
C0
C0
C0
C0
FC
FC
ENDCHAR
STARTCHAR zdotaccent
ENCODING 380
SWIDTH 888 0
DWIDTH 8 0
BBX 6 14 0 0
BITMAP
30
30
00
00
FC
FC
0C
0C
30
30
C0
C0
FC
FC
ENDCHAR
STARTCHAR Zcaron
ENCODING 381
SWIDTH 888 0
DWIDTH 8 0
BBX 6 16 0 0
BITMAP
CC
CC
30
30
00
00
FC
FC
0C
0C
30
30
C0
C0
FC
FC
ENDCHAR
STARTCHAR zcaron
ENCODING 382
SWIDTH 888 0
DWIDTH 8 0
BBX 6 16 0 0
BITMAP
CC
CC
30
30
00
00
FC
FC
0C
0C
30
30
C0
C0
FC
FC
ENDCHAR
STARTCHAR longs
ENCODING 383
SWIDTH 888 0
DWIDTH 8 0
BBX 6 16 0 0
BITMAP
FC
FC
C0
C0
C0
C0
C0
C0
C0
C0
C0
C0
C0
C0
C0
C0
ENDCHAR
STARTCHAR Alphatonos
ENCODING 902
SWIDTH 1333 0
DWIDTH 12 0
BBX 10 16 0 0
BITMAP
CFC0
CFC0
CCC0
CCC0
0CC0
0CC0
0FC0
0FC0
0CC0
0CC0
0CC0
0CC0
0CC0
0CC0
0CC0
0CC0
ENDCHAR
STARTCHAR Epsilontonos
ENCODING 904
SWIDTH 1333 0
DWIDTH 12 0
BBX 10 16 0 0
BITMAP
CFC0
CFC0
CC00
CC00
0C00
0C00
0FC0
0FC0
0C00
0C00
0C00
0C00
0C00
0C00
0FC0
0FC0
ENDCHAR
STARTCHAR Etatonos
ENCODING 905
SWIDTH 1555 0
DWIDTH 14 0
BBX 12 16 0 0
BITMAP
CC30
CC30
CC30
CC30
0C30
0C30
0FF0
0FF0
0C30
0C30
0C30
0C30
0C30
0C30
0C30
0C30
ENDCHAR
STARTCHAR Iotatonos
ENCODING 906
SWIDTH 1333 0
DWIDTH 12 0
BBX 10 16 0 0
BITMAP
CFC0
CFC0
C300
C300
0300
0300
0300
0300
0300
0300
0300
0300
0300
0300
0FC0
0FC0
ENDCHAR
STARTCHAR Omicrontonos
ENCODING 908
SWIDTH 1555 0
DWIDTH 14 0
BBX 12 16 0 0
BITMAP
CFF0
CFF0
CC30
CC30
0C30
0C30
0C30
0C30
0C30
0C30
0C30
0C30
0C30
0C30
0FF0
0FF0
ENDCHAR
STARTCHAR Upsilontonos
ENCODING 910
SWIDTH 1333 0
DWIDTH 12 0
BBX 10 16 0 0
BITMAP
CCC0
CCC0
CCC0
CCC0
0CC0
0CC0
0FC0
0FC0
0300
0300
0300
0300
0300
0300
0300
0300
ENDCHAR
STARTCHAR Omegatonos
ENCODING 911
SWIDTH 1777 0
DWIDTH 16 0
BBX 14 16 0 0
BITMAP
CFFC
CFFC
CC0C
CC0C
0C0C
0C0C
0C0C
0C0C
0C0C
0C0C
0F3C
0F3C
0330
0330
0F3C
0F3C
ENDCHAR
STARTCHAR Alpha
ENCODING 913
SWIDTH 888 0
DWIDTH 8 0
BBX 6 16 0 0
BITMAP
FC
FC
CC
CC
CC
CC
FC
FC
CC
CC
CC
CC
CC
CC
CC
CC
ENDCHAR
STARTCHAR Beta
ENCODING 914
SWIDTH 888 0
DWIDTH 8 0
BBX 6 16 0 0
BITMAP
FC
FC
CC
CC
CC
CC
F0
F0
CC
CC
CC
CC
CC
CC
FC
FC
ENDCHAR
STARTCHAR Gamma
ENCODING 915
SWIDTH 888 0
DWIDTH 8 0
BBX 6 16 0 0
BITMAP
FC
FC
C0
C0
C0
C0
C0
C0
C0
C0
C0
C0
C0
C0
C0
C0
ENDCHAR
STARTCHAR uni0394
ENCODING 916
SWIDTH 1333 0
DWIDTH 12 0
BBX 10 16 0 0
BITMAP
0C00
0C00
0C00
0C00
3300
3300
3300
3300
C0C0
C0C0
C0C0
C0C0
C0C0
C0C0
FFC0
FFC0
ENDCHAR
STARTCHAR Epsilon
ENCODING 917
SWIDTH 888 0
DWIDTH 8 0
BBX 6 16 0 0
BITMAP
FC
FC
C0
C0
C0
C0
FC
FC
C0
C0
C0
C0
C0
C0
FC
FC
ENDCHAR
STARTCHAR Zeta
ENCODING 918
SWIDTH 888 0
DWIDTH 8 0
BBX 6 16 0 0
BITMAP
FC
FC
0C
0C
0C
0C
30
30
C0
C0
C0
C0
C0
C0
FC
FC
ENDCHAR
STARTCHAR Eta
ENCODING 919
SWIDTH 1111 0
DWIDTH 10 0
BBX 8 16 0 0
BITMAP
C3
C3
C3
C3
C3
C3
FF
FF
C3
C3
C3
C3
C3
C3
C3
C3
ENDCHAR
STARTCHAR Theta
ENCODING 920
SWIDTH 1111 0
DWIDTH 10 0
BBX 8 16 0 0
BITMAP
FF
FF
C3
C3
C3
C3
FF
FF
C3
C3
C3
C3
C3
C3
FF
FF
ENDCHAR
STARTCHAR Iota
ENCODING 921
SWIDTH 888 0
DWIDTH 8 0
BBX 6 16 0 0
BITMAP
FC
FC
30
30
30
30
30
30
30
30
30
30
30
30
FC
FC
ENDCHAR
STARTCHAR Kappa
ENCODING 922
SWIDTH 888 0
DWIDTH 8 0
BBX 6 16 0 0
BITMAP
CC
CC
CC
CC
CC
CC
F0
F0
CC
CC
CC
CC
CC
CC
CC
CC
ENDCHAR
STARTCHAR Lambda
ENCODING 923
SWIDTH 1333 0
DWIDTH 12 0
BBX 10 16 0 0
BITMAP
0C00
0C00
0C00
0C00
3300
3300
3300
3300
3300
3300
C0C0
C0C0
C0C0
C0C0
C0C0
C0C0
ENDCHAR
STARTCHAR Mu
ENCODING 924
SWIDTH 1333 0
DWIDTH 12 0
BBX 10 16 0 0
BITMAP
C0C0
C0C0
F3C0
F3C0
CCC0
CCC0
CCC0
CCC0
C0C0
C0C0
C0C0
C0C0
C0C0
C0C0
C0C0
C0C0
ENDCHAR
STARTCHAR Nu
ENCODING 925
SWIDTH 1111 0
DWIDTH 10 0
BBX 8 16 0 0
BITMAP
C3
C3
C3
C3
F3
F3
CF
CF
C3
C3
C3
C3
C3
C3
C3
C3
ENDCHAR
STARTCHAR Xi
ENCODING 926
SWIDTH 888 0
DWIDTH 8 0
BBX 6 16 0 0
BITMAP
FC
FC
00
00
00
00
FC
FC
00
00
00
00
00
00
FC
FC
ENDCHAR
STARTCHAR Omicron
ENCODING 927
SWIDTH 1111 0
DWIDTH 10 0
BBX 8 16 0 0
BITMAP
FF
FF
C3
C3
C3
C3
C3
C3
C3
C3
C3
C3
C3
C3
FF
FF
ENDCHAR
STARTCHAR Pi
ENCODING 928
SWIDTH 1111 0
DWIDTH 10 0
BBX 8 16 0 0
BITMAP
FF
FF
C3
C3
C3
C3
C3
C3
C3
C3
C3
C3
C3
C3
C3
C3
ENDCHAR
STARTCHAR Rho
ENCODING 929
SWIDTH 888 0
DWIDTH 8 0
BBX 6 16 0 0
BITMAP
FC
FC
CC
CC
CC
CC
FC
FC
C0
C0
C0
C0
C0
C0
C0
C0
ENDCHAR
STARTCHAR Sigma
ENCODING 931
SWIDTH 888 0
DWIDTH 8 0
BBX 6 16 0 0
BITMAP
FC
FC
C0
C0
30
30
0C
0C
30
30
C0
C0
C0
C0
FC
FC
ENDCHAR
STARTCHAR Tau
ENCODING 932
SWIDTH 888 0
DWIDTH 8 0
BBX 6 16 0 0
BITMAP
FC
FC
30
30
30
30
30
30
30
30
30
30
30
30
30
30
ENDCHAR
STARTCHAR Upsilon
ENCODING 933
SWIDTH 888 0
DWIDTH 8 0
BBX 6 16 0 0
BITMAP
CC
CC
CC
CC
CC
CC
FC
FC
30
30
30
30
30
30
30
30
ENDCHAR
STARTCHAR Phi
ENCODING 934
SWIDTH 1333 0
DWIDTH 12 0
BBX 10 16 0 0
BITMAP
0C00
0C00
FFC0
FFC0
CCC0
CCC0
CCC0
CCC0
CCC0
CCC0
CCC0
CCC0
FFC0
FFC0
0C00
0C00
ENDCHAR
STARTCHAR Chi
ENCODING 935
SWIDTH 888 0
DWIDTH 8 0
BBX 6 16 0 0
BITMAP
CC
CC
CC
CC
CC
CC
30
30
CC
CC
CC
CC
CC
CC
CC
CC
ENDCHAR
STARTCHAR Psi
ENCODING 936
SWIDTH 1333 0
DWIDTH 12 0
BBX 10 16 0 0
BITMAP
CCC0
CCC0
CCC0
CCC0
CCC0
CCC0
FFC0
FFC0
0C00
0C00
0C00
0C00
0C00
0C00
0C00
0C00
ENDCHAR
STARTCHAR uni03A9
ENCODING 937
SWIDTH 1333 0
DWIDTH 12 0
BBX 10 16 0 0
BITMAP
FFC0
FFC0
C0C0
C0C0
C0C0
C0C0
C0C0
C0C0
C0C0
C0C0
F3C0
F3C0
3300
3300
F3C0
F3C0
ENDCHAR
STARTCHAR Iotadieresis
ENCODING 938
SWIDTH 888 0
DWIDTH 8 0
BBX 6 16 0 0
BITMAP
CC
CC
00
00
FC
FC
30
30
30
30
30
30
30
30
FC
FC
ENDCHAR
STARTCHAR Upsilondieresis
ENCODING 939
SWIDTH 888 0
DWIDTH 8 0
BBX 6 16 0 0
BITMAP
CC
CC
00
00
CC
CC
CC
CC
FC
FC
30
30
30
30
30
30
ENDCHAR
STARTCHAR alphatonos
ENCODING 940
SWIDTH 1111 0
DWIDTH 10 0
BBX 8 16 0 0
BITMAP
0C
0C
30
30
00
00
F3
F3
CC
CC
CC
CC
CC
CC
F3
F3
ENDCHAR
STARTCHAR epsilontonos
ENCODING 941
SWIDTH 888 0
DWIDTH 8 0
BBX 6 16 0 0
BITMAP
0C
0C
30
30
00
00
FC
FC
C0
C0
30
30
C0
C0
FC
FC
ENDCHAR
STARTCHAR etatonos
ENCODING 942
SWIDTH 888 0
DWIDTH 8 0
BBX 6 16 0 0
BITMAP
0C
0C
30
30
00
00
FC
FC
CC
CC
CC
CC
CC
CC
0C
0C
ENDCHAR
STARTCHAR iotatonos
ENCODING 943
SWIDTH 888 0
DWIDTH 8 0
BBX 6 16 0 0
BITMAP
0C
0C
30
30
00
00
F0
F0
30
30
30
30
30
30
3C
3C
ENDCHAR
STARTCHAR alpha
ENCODING 945
SWIDTH 1111 0
DWIDTH 10 0
BBX 8 10 0 0
BITMAP
F3
F3
CC
CC
CC
CC
CC
CC
F3
F3
ENDCHAR
STARTCHAR beta
ENCODING 946
SWIDTH 888 0
DWIDTH 8 0
BBX 6 16 0 0
BITMAP
3C
3C
CC
CC
CC
CC
F0
F0
CC
CC
CC
CC
FC
FC
C0
C0
ENDCHAR
STARTCHAR gamma
ENCODING 947
SWIDTH 1111 0
DWIDTH 10 0
BBX 8 10 0 0
BITMAP
F3
F3
33
33
3F
3F
0C
0C
0C
0C
ENDCHAR
STARTCHAR delta
ENCODING 948
SWIDTH 888 0
DWIDTH 8 0
BBX 6 16 0 0
BITMAP
FC
FC
C0
C0
30
30
FC
FC
CC
CC
CC
CC
CC
CC
FC
FC
ENDCHAR
STARTCHAR epsilon
ENCODING 949
SWIDTH 888 0
DWIDTH 8 0
BBX 6 10 0 0
BITMAP
FC
FC
C0
C0
30
30
C0
C0
FC
FC
ENDCHAR
STARTCHAR zeta
ENCODING 950
SWIDTH 888 0
DWIDTH 8 0
BBX 6 16 0 0
BITMAP
FC
FC
0C
0C
F0
F0
C0
C0
C0
C0
C0
C0
FC
FC
0C
0C
ENDCHAR
STARTCHAR eta
ENCODING 951
SWIDTH 888 0
DWIDTH 8 0
BBX 6 10 0 0
BITMAP
FC
FC
CC
CC
CC
CC
CC
CC
0C
0C
ENDCHAR
STARTCHAR theta
ENCODING 952
SWIDTH 888 0
DWIDTH 8 0
BBX 6 16 0 0
BITMAP
FC
FC
CC
CC
CC
CC
FC
FC
CC
CC
CC
CC
CC
CC
FC
FC
ENDCHAR
STARTCHAR iota
ENCODING 953
SWIDTH 888 0
DWIDTH 8 0
BBX 6 10 0 0
BITMAP
F0
F0
30
30
30
30
30
30
3C
3C
ENDCHAR
STARTCHAR kappa
ENCODING 954
SWIDTH 888 0
DWIDTH 8 0
BBX 6 10 0 0
BITMAP
CC
CC
CC
CC
F0
F0
CC
CC
CC
CC
ENDCHAR
STARTCHAR lambda
ENCODING 955
SWIDTH 1333 0
DWIDTH 12 0
BBX 10 16 0 0
BITMAP
3C00
3C00
0C00
0C00
0C00
0C00
3300
3300
3300
3300
C0C0
C0C0
C0C0
C0C0
C0C0
C0C0
ENDCHAR
STARTCHAR uni03BC
ENCODING 956
SWIDTH 888 0
DWIDTH 8 0
BBX 6 10 0 0
BITMAP
CC
CC
CC
CC
CC
CC
FC
FC
C0
C0
ENDCHAR
STARTCHAR nu
ENCODING 957
SWIDTH 888 0
DWIDTH 8 0
BBX 6 10 0 0
BITMAP
CC
CC
CC
CC
CC
CC
FC
FC
30
30
ENDCHAR
STARTCHAR xi
ENCODING 958
SWIDTH 888 0
DWIDTH 8 0
BBX 6 16 0 0
BITMAP
C0
C0
FC
FC
C0
C0
3C
3C
C0
C0
C0
C0
FC
FC
0C
0C
ENDCHAR
STARTCHAR omicron
ENCODING 959
SWIDTH 888 0
DWIDTH 8 0
BBX 6 10 0 0
BITMAP
FC
FC
CC
CC
CC
CC
CC
CC
FC
FC
ENDCHAR
STARTCHAR pi
ENCODING 960
SWIDTH 1333 0
DWIDTH 12 0
BBX 10 10 0 0
BITMAP
FFC0
FFC0
3300
3300
3300
3300
3300
3300
33C0
33C0
ENDCHAR
STARTCHAR rho
ENCODING 961
SWIDTH 888 0
DWIDTH 8 0
BBX 6 10 0 0
BITMAP
FC
FC
CC
CC
CC
CC
FC
FC
C0
C0
ENDCHAR
STARTCHAR sigma1
ENCODING 962
SWIDTH 888 0
DWIDTH 8 0
BBX 6 10 0 0
BITMAP
FC
FC
C0
C0
C0
C0
FC
FC
0C
0C
ENDCHAR
STARTCHAR sigma
ENCODING 963
SWIDTH 1111 0
DWIDTH 10 0
BBX 8 10 0 0
BITMAP
FF
FF
CC
CC
CC
CC
CC
CC
FC
FC
ENDCHAR
STARTCHAR tau
ENCODING 964
SWIDTH 888 0
DWIDTH 8 0
BBX 6 10 0 0
BITMAP
FC
FC
30
30
30
30
30
30
3C
3C
ENDCHAR
STARTCHAR upsilon
ENCODING 965
SWIDTH 888 0
DWIDTH 8 0
BBX 6 10 0 0
BITMAP
CC
CC
CC
CC
CC
CC
CC
CC
FC
FC
ENDCHAR
STARTCHAR phi
ENCODING 966
SWIDTH 1333 0
DWIDTH 12 0
BBX 10 10 0 0
BITMAP
CFC0
CFC0
CCC0
CCC0
CCC0
CCC0
FFC0
FFC0
0C00
0C00
ENDCHAR
STARTCHAR chi
ENCODING 967
SWIDTH 888 0
DWIDTH 8 0
BBX 6 10 0 0
BITMAP
CC
CC
CC
CC
30
30
CC
CC
CC
CC
ENDCHAR
STARTCHAR psi
ENCODING 968
SWIDTH 1333 0
DWIDTH 12 0
BBX 10 10 0 0
BITMAP
CCC0
CCC0
CCC0
CCC0
CCC0
CCC0
FFC0
FFC0
0C00
0C00
ENDCHAR
STARTCHAR omega
ENCODING 969
SWIDTH 1333 0
DWIDTH 12 0
BBX 10 10 0 0
BITMAP
C0C0
C0C0
CCC0
CCC0
CCC0
CCC0
FFC0
FFC0
3300
3300
ENDCHAR
STARTCHAR iotadieresis
ENCODING 970
SWIDTH 888 0
DWIDTH 8 0
BBX 6 14 0 0
BITMAP
CC
CC
00
00
F0
F0
30
30
30
30
30
30
3C
3C
ENDCHAR
STARTCHAR upsilondieresis
ENCODING 971
SWIDTH 888 0
DWIDTH 8 0
BBX 6 14 0 0
BITMAP
CC
CC
00
00
CC
CC
CC
CC
CC
CC
CC
CC
FC
FC
ENDCHAR
STARTCHAR omicrontonos
ENCODING 972
SWIDTH 888 0
DWIDTH 8 0
BBX 6 16 0 0
BITMAP
0C
0C
30
30
00
00
FC
FC
CC
CC
CC
CC
CC
CC
FC
FC
ENDCHAR
STARTCHAR upsilontonos
ENCODING 973
SWIDTH 888 0
DWIDTH 8 0
BBX 6 16 0 0
BITMAP
0C
0C
30
30
00
00
CC
CC
CC
CC
CC
CC
CC
CC
FC
FC
ENDCHAR
STARTCHAR omegatonos
ENCODING 974
SWIDTH 1333 0
DWIDTH 12 0
BBX 10 16 0 0
BITMAP
0300
0300
0C00
0C00
0000
0000
C0C0
C0C0
CCC0
CCC0
CCC0
CCC0
FFC0
FFC0
3300
3300
ENDCHAR
STARTCHAR uni0401
ENCODING 1025
SWIDTH 888 0
DWIDTH 8 0
BBX 6 16 0 0
BITMAP
CC
CC
00
00
FC
FC
C0
C0
FC
FC
C0
C0
C0
C0
FC
FC
ENDCHAR
STARTCHAR uni0404
ENCODING 1028
SWIDTH 1111 0
DWIDTH 10 0
BBX 8 16 0 0
BITMAP
3F
3F
C0
C0
C0
C0
FC
FC
C0
C0
C0
C0
C0
C0
3F
3F
ENDCHAR
STARTCHAR uni0406
ENCODING 1030
SWIDTH 888 0
DWIDTH 8 0
BBX 6 16 0 0
BITMAP
FC
FC
30
30
30
30
30
30
30
30
30
30
30
30
FC
FC
ENDCHAR
STARTCHAR uni0407
ENCODING 1031
SWIDTH 888 0
DWIDTH 8 0
BBX 6 16 0 0
BITMAP
CC
CC
00
00
FC
FC
30
30
30
30
30
30
30
30
FC
FC
ENDCHAR
STARTCHAR uni040E
ENCODING 1038
SWIDTH 888 0
DWIDTH 8 0
BBX 6 16 0 0
BITMAP
30
30
00
00
CC
CC
CC
CC
FC
FC
0C
0C
0C
0C
3C
3C
ENDCHAR
STARTCHAR uni0410
ENCODING 1040
SWIDTH 888 0
DWIDTH 8 0
BBX 6 16 0 0
BITMAP
FC
FC
CC
CC
CC
CC
FC
FC
CC
CC
CC
CC
CC
CC
CC
CC
ENDCHAR
STARTCHAR uni0411
ENCODING 1041
SWIDTH 888 0
DWIDTH 8 0
BBX 6 16 0 0
BITMAP
FC
FC
C0
C0
C0
C0
FC
FC
CC
CC
CC
CC
CC
CC
FC
FC
ENDCHAR
STARTCHAR uni0412
ENCODING 1042
SWIDTH 888 0
DWIDTH 8 0
BBX 6 16 0 0
BITMAP
FC
FC
CC
CC
CC
CC
F0
F0
CC
CC
CC
CC
CC
CC
FC
FC
ENDCHAR
STARTCHAR uni0413
ENCODING 1043
SWIDTH 888 0
DWIDTH 8 0
BBX 6 16 0 0
BITMAP
FC
FC
C0
C0
C0
C0
C0
C0
C0
C0
C0
C0
C0
C0
C0
C0
ENDCHAR
STARTCHAR uni0414
ENCODING 1044
SWIDTH 1333 0
DWIDTH 12 0
BBX 10 16 0 0
BITMAP
0F00
0F00
3300
3300
3300
3300
3300
3300
3300
3300
3300
3300
FFC0
FFC0
C0C0
C0C0
ENDCHAR
STARTCHAR uni0415
ENCODING 1045
SWIDTH 888 0
DWIDTH 8 0
BBX 6 16 0 0
BITMAP
FC
FC
C0
C0
C0
C0
FC
FC
C0
C0
C0
C0
C0
C0
FC
FC
ENDCHAR
STARTCHAR uni0416
ENCODING 1046
SWIDTH 1333 0
DWIDTH 12 0
BBX 10 16 0 0
BITMAP
CCC0
CCC0
CCC0
CCC0
CCC0
CCC0
FFC0
FFC0
CCC0
CCC0
CCC0
CCC0
CCC0
CCC0
CCC0
CCC0
ENDCHAR
STARTCHAR uni0417
ENCODING 1047
SWIDTH 888 0
DWIDTH 8 0
BBX 6 16 0 0
BITMAP
FC
FC
CC
CC
0C
0C
30
30
0C
0C
0C
0C
CC
CC
FC
FC
ENDCHAR
STARTCHAR uni0418
ENCODING 1048
SWIDTH 1333 0
DWIDTH 12 0
BBX 10 16 0 0
BITMAP
C0C0
C0C0
C0C0
C0C0
C3C0
C3C0
CCC0
CCC0
F0C0
F0C0
C0C0
C0C0
C0C0
C0C0
C0C0
C0C0
ENDCHAR
STARTCHAR uni0419
ENCODING 1049
SWIDTH 1333 0
DWIDTH 12 0
BBX 10 16 0 0
BITMAP
CCC0
CCC0
C0C0
C0C0
C3C0
C3C0
CCC0
CCC0
F0C0
F0C0
C0C0
C0C0
C0C0
C0C0
C0C0
C0C0
ENDCHAR
STARTCHAR uni041A
ENCODING 1050
SWIDTH 888 0
DWIDTH 8 0
BBX 6 16 0 0
BITMAP
CC
CC
CC
CC
CC
CC
F0
F0
CC
CC
CC
CC
CC
CC
CC
CC
ENDCHAR
STARTCHAR uni041B
ENCODING 1051
SWIDTH 1111 0
DWIDTH 10 0
BBX 8 16 0 0
BITMAP
0F
0F
33
33
33
33
33
33
33
33
33
33
33
33
F3
F3
ENDCHAR
STARTCHAR uni041C
ENCODING 1052
SWIDTH 1333 0
DWIDTH 12 0
BBX 10 16 0 0
BITMAP
C0C0
C0C0
F3C0
F3C0
CCC0
CCC0
CCC0
CCC0
C0C0
C0C0
C0C0
C0C0
C0C0
C0C0
C0C0
C0C0
ENDCHAR
STARTCHAR uni041D
ENCODING 1053
SWIDTH 1111 0
DWIDTH 10 0
BBX 8 16 0 0
BITMAP
C3
C3
C3
C3
C3
C3
FF
FF
C3
C3
C3
C3
C3
C3
C3
C3
ENDCHAR
STARTCHAR uni041E
ENCODING 1054
SWIDTH 1111 0
DWIDTH 10 0
BBX 8 16 0 0
BITMAP
FF
FF
C3
C3
C3
C3
C3
C3
C3
C3
C3
C3
C3
C3
FF
FF
ENDCHAR
STARTCHAR uni041F
ENCODING 1055
SWIDTH 1111 0
DWIDTH 10 0
BBX 8 16 0 0
BITMAP
FF
FF
C3
C3
C3
C3
C3
C3
C3
C3
C3
C3
C3
C3
C3
C3
ENDCHAR
STARTCHAR uni0420
ENCODING 1056
SWIDTH 888 0
DWIDTH 8 0
BBX 6 16 0 0
BITMAP
FC
FC
CC
CC
CC
CC
FC
FC
C0
C0
C0
C0
C0
C0
C0
C0
ENDCHAR
STARTCHAR uni0421
ENCODING 1057
SWIDTH 888 0
DWIDTH 8 0
BBX 6 16 0 0
BITMAP
FC
FC
CC
CC
C0
C0
C0
C0
C0
C0
C0
C0
CC
CC
FC
FC
ENDCHAR
STARTCHAR uni0422
ENCODING 1058
SWIDTH 888 0
DWIDTH 8 0
BBX 6 16 0 0
BITMAP
FC
FC
30
30
30
30
30
30
30
30
30
30
30
30
30
30
ENDCHAR
STARTCHAR uni0423
ENCODING 1059
SWIDTH 1111 0
DWIDTH 10 0
BBX 8 16 0 0
BITMAP
C3
C3
C3
C3
C3
C3
FF
FF
03
03
03
03
03
03
3F
3F
ENDCHAR
STARTCHAR uni0424
ENCODING 1060
SWIDTH 1333 0
DWIDTH 12 0
BBX 10 16 0 0
BITMAP
0C00
0C00
FFC0
FFC0
CCC0
CCC0
CCC0
CCC0
CCC0
CCC0
CCC0
CCC0
FFC0
FFC0
0C00
0C00
ENDCHAR
STARTCHAR uni0425
ENCODING 1061
SWIDTH 888 0
DWIDTH 8 0
BBX 6 16 0 0
BITMAP
CC
CC
CC
CC
CC
CC
30
30
CC
CC
CC
CC
CC
CC
CC
CC
ENDCHAR
STARTCHAR uni0426
ENCODING 1062
SWIDTH 1111 0
DWIDTH 10 0
BBX 8 16 0 0
BITMAP
CC
CC
CC
CC
CC
CC
CC
CC
CC
CC
CC
CC
CC
CC
FF
FF
ENDCHAR
STARTCHAR uni0427
ENCODING 1063
SWIDTH 888 0
DWIDTH 8 0
BBX 6 16 0 0
BITMAP
CC
CC
CC
CC
CC
CC
FC
FC
0C
0C
0C
0C
0C
0C
0C
0C
ENDCHAR
STARTCHAR uni0428
ENCODING 1064
SWIDTH 1333 0
DWIDTH 12 0
BBX 10 16 0 0
BITMAP
CCC0
CCC0
CCC0
CCC0
CCC0
CCC0
CCC0
CCC0
CCC0
CCC0
CCC0
CCC0
CCC0
CCC0
FFC0
FFC0
ENDCHAR
STARTCHAR uni0429
ENCODING 1065
SWIDTH 1555 0
DWIDTH 14 0
BBX 12 16 0 0
BITMAP
CCC0
CCC0
CCC0
CCC0
CCC0
CCC0
CCC0
CCC0
CCC0
CCC0
CCC0
CCC0
CCC0
CCC0
FFF0
FFF0
ENDCHAR
STARTCHAR uni042A
ENCODING 1066
SWIDTH 1111 0
DWIDTH 10 0
BBX 8 16 0 0
BITMAP
F0
F0
30
30
30
30
3F
3F
33
33
33
33
33
33
3F
3F
ENDCHAR
STARTCHAR uni042B
ENCODING 1067
SWIDTH 1333 0
DWIDTH 12 0
BBX 10 16 0 0
BITMAP
C0C0
C0C0
C0C0
C0C0
C0C0
C0C0
FCC0
FCC0
CCC0
CCC0
CCC0
CCC0
CCC0
CCC0
FCC0
FCC0
ENDCHAR
STARTCHAR uni042C
ENCODING 1068
SWIDTH 888 0
DWIDTH 8 0
BBX 6 16 0 0
BITMAP
C0
C0
C0
C0
C0
C0
FC
FC
CC
CC
CC
CC
CC
CC
FC
FC
ENDCHAR
STARTCHAR uni042D
ENCODING 1069
SWIDTH 1111 0
DWIDTH 10 0
BBX 8 16 0 0
BITMAP
FC
FC
03
03
03
03
3F
3F
03
03
03
03
03
03
FC
FC
ENDCHAR
STARTCHAR uni042E
ENCODING 1070
SWIDTH 1333 0
DWIDTH 12 0
BBX 10 16 0 0
BITMAP
CFC0
CFC0
CCC0
CCC0
CCC0
CCC0
FCC0
FCC0
CCC0
CCC0
CCC0
CCC0
CCC0
CCC0
CFC0
CFC0
ENDCHAR
STARTCHAR uni042F
ENCODING 1071
SWIDTH 888 0
DWIDTH 8 0
BBX 6 16 0 0
BITMAP
FC
FC
CC
CC
CC
CC
3C
3C
CC
CC
CC
CC
CC
CC
CC
CC
ENDCHAR
STARTCHAR uni0430
ENCODING 1072
SWIDTH 888 0
DWIDTH 8 0
BBX 6 10 0 0
BITMAP
FC
FC
0C
0C
FC
FC
CC
CC
FC
FC
ENDCHAR
STARTCHAR uni0431
ENCODING 1073
SWIDTH 888 0
DWIDTH 8 0
BBX 6 14 0 0
BITMAP
3C
3C
C0
C0
FC
FC
CC
CC
CC
CC
CC
CC
FC
FC
ENDCHAR
STARTCHAR uni0432
ENCODING 1074
SWIDTH 888 0
DWIDTH 8 0
BBX 6 10 0 0
BITMAP
FC
FC
CC
CC
F0
F0
CC
CC
FC
FC
ENDCHAR
STARTCHAR uni0433
ENCODING 1075
SWIDTH 888 0
DWIDTH 8 0
BBX 6 10 0 0
BITMAP
FC
FC
C0
C0
C0
C0
C0
C0
C0
C0
ENDCHAR
STARTCHAR uni0434
ENCODING 1076
SWIDTH 1333 0
DWIDTH 12 0
BBX 10 10 0 0
BITMAP
0F00
0F00
3300
3300
3300
3300
FFC0
FFC0
C0C0
C0C0
ENDCHAR
STARTCHAR uni0435
ENCODING 1077
SWIDTH 888 0
DWIDTH 8 0
BBX 6 10 0 0
BITMAP
FC
FC
CC
CC
FC
FC
C0
C0
FC
FC
ENDCHAR
STARTCHAR uni0436
ENCODING 1078
SWIDTH 1333 0
DWIDTH 12 0
BBX 10 10 0 0
BITMAP
CCC0
CCC0
CCC0
CCC0
FFC0
FFC0
CCC0
CCC0
CCC0
CCC0
ENDCHAR
STARTCHAR uni0437
ENCODING 1079
SWIDTH 888 0
DWIDTH 8 0
BBX 6 10 0 0
BITMAP
FC
FC
0C
0C
30
30
0C
0C
FC
FC
ENDCHAR
STARTCHAR uni0438
ENCODING 1080
SWIDTH 1111 0
DWIDTH 10 0
BBX 8 10 0 0
BITMAP
C3
C3
CF
CF
F3
F3
C3
C3
C3
C3
ENDCHAR
STARTCHAR uni0439
ENCODING 1081
SWIDTH 1111 0
DWIDTH 10 0
BBX 8 14 0 0
BITMAP
3C
3C
00
00
C3
C3
CF
CF
F3
F3
C3
C3
C3
C3
ENDCHAR
STARTCHAR uni043A
ENCODING 1082
SWIDTH 888 0
DWIDTH 8 0
BBX 6 10 0 0
BITMAP
CC
CC
CC
CC
F0
F0
CC
CC
CC
CC
ENDCHAR
STARTCHAR uni043B
ENCODING 1083
SWIDTH 1111 0
DWIDTH 10 0
BBX 8 10 0 0
BITMAP
0F
0F
33
33
33
33
33
33
F3
F3
ENDCHAR
STARTCHAR uni043C
ENCODING 1084
SWIDTH 1333 0
DWIDTH 12 0
BBX 10 10 0 0
BITMAP
C0C0
C0C0
F3C0
F3C0
CCC0
CCC0
C0C0
C0C0
C0C0
C0C0
ENDCHAR
STARTCHAR uni043D
ENCODING 1085
SWIDTH 888 0
DWIDTH 8 0
BBX 6 10 0 0
BITMAP
CC
CC
CC
CC
FC
FC
CC
CC
CC
CC
ENDCHAR
STARTCHAR uni043E
ENCODING 1086
SWIDTH 888 0
DWIDTH 8 0
BBX 6 10 0 0
BITMAP
FC
FC
CC
CC
CC
CC
CC
CC
FC
FC
ENDCHAR
STARTCHAR uni043F
ENCODING 1087
SWIDTH 888 0
DWIDTH 8 0
BBX 6 10 0 0
BITMAP
FC
FC
CC
CC
CC
CC
CC
CC
CC
CC
ENDCHAR
STARTCHAR uni0440
ENCODING 1088
SWIDTH 888 0
DWIDTH 8 0
BBX 6 10 0 0
BITMAP
FC
FC
CC
CC
FC
FC
C0
C0
C0
C0
ENDCHAR
STARTCHAR uni0441
ENCODING 1089
SWIDTH 888 0
DWIDTH 8 0
BBX 6 10 0 0
BITMAP
FC
FC
C0
C0
C0
C0
C0
C0
FC
FC
ENDCHAR
STARTCHAR uni0442
ENCODING 1090
SWIDTH 888 0
DWIDTH 8 0
BBX 6 10 0 0
BITMAP
FC
FC
30
30
30
30
30
30
30
30
ENDCHAR
STARTCHAR uni0443
ENCODING 1091
SWIDTH 888 0
DWIDTH 8 0
BBX 6 10 0 0
BITMAP
CC
CC
CC
CC
FC
FC
0C
0C
3C
3C
ENDCHAR
STARTCHAR uni0444
ENCODING 1092
SWIDTH 1333 0
DWIDTH 12 0
BBX 10 16 0 0
BITMAP
0C00
0C00
0C00
0C00
0C00
0C00
FFC0
FFC0
CCC0
CCC0
CCC0
CCC0
FFC0
FFC0
0C00
0C00
ENDCHAR
STARTCHAR uni0445
ENCODING 1093
SWIDTH 888 0
DWIDTH 8 0
BBX 6 10 0 0
BITMAP
CC
CC
CC
CC
30
30
CC
CC
CC
CC
ENDCHAR
STARTCHAR uni0446
ENCODING 1094
SWIDTH 1111 0
DWIDTH 10 0
BBX 8 10 0 0
BITMAP
CC
CC
CC
CC
CC
CC
CC
CC
FF
FF
ENDCHAR
STARTCHAR uni0447
ENCODING 1095
SWIDTH 888 0
DWIDTH 8 0
BBX 6 10 0 0
BITMAP
CC
CC
CC
CC
FC
FC
0C
0C
0C
0C
ENDCHAR
STARTCHAR uni0448
ENCODING 1096
SWIDTH 1333 0
DWIDTH 12 0
BBX 10 10 0 0
BITMAP
CCC0
CCC0
CCC0
CCC0
CCC0
CCC0
CCC0
CCC0
FFC0
FFC0
ENDCHAR
STARTCHAR uni0449
ENCODING 1097
SWIDTH 1555 0
DWIDTH 14 0
BBX 12 10 0 0
BITMAP
CCC0
CCC0
CCC0
CCC0
CCC0
CCC0
CCC0
CCC0
FFF0
FFF0
ENDCHAR
STARTCHAR uni044A
ENCODING 1098
SWIDTH 1111 0
DWIDTH 10 0
BBX 8 10 0 0
BITMAP
F0
F0
30
30
3F
3F
33
33
3F
3F
ENDCHAR
STARTCHAR uni044B
ENCODING 1099
SWIDTH 1333 0
DWIDTH 12 0
BBX 10 10 0 0
BITMAP
C0C0
C0C0
C0C0
C0C0
FCC0
FCC0
CCC0
CCC0
FCC0
FCC0
ENDCHAR
STARTCHAR uni044C
ENCODING 1100
SWIDTH 888 0
DWIDTH 8 0
BBX 6 10 0 0
BITMAP
C0
C0
C0
C0
FC
FC
CC
CC
FC
FC
ENDCHAR
STARTCHAR uni044D
ENCODING 1101
SWIDTH 888 0
DWIDTH 8 0
BBX 6 10 0 0
BITMAP
F0
F0
0C
0C
FC
FC
0C
0C
F0
F0
ENDCHAR
STARTCHAR uni044E
ENCODING 1102
SWIDTH 1333 0
DWIDTH 12 0
BBX 10 10 0 0
BITMAP
CFC0
CFC0
CCC0
CCC0
FCC0
FCC0
CCC0
CCC0
CFC0
CFC0
ENDCHAR
STARTCHAR uni044F
ENCODING 1103
SWIDTH 888 0
DWIDTH 8 0
BBX 6 10 0 0
BITMAP
FC
FC
CC
CC
3C
3C
CC
CC
CC
CC
ENDCHAR
STARTCHAR uni0451
ENCODING 1105
SWIDTH 888 0
DWIDTH 8 0
BBX 6 14 0 0
BITMAP
CC
CC
00
00
FC
FC
CC
CC
FC
FC
C0
C0
FC
FC
ENDCHAR
STARTCHAR uni0454
ENCODING 1108
SWIDTH 888 0
DWIDTH 8 0
BBX 6 10 0 0
BITMAP
3C
3C
C0
C0
FC
FC
C0
C0
3C
3C
ENDCHAR
STARTCHAR uni0456
ENCODING 1110
SWIDTH 888 0
DWIDTH 8 0
BBX 6 14 0 0
BITMAP
30
30
00
00
F0
F0
30
30
30
30
30
30
FC
FC
ENDCHAR
STARTCHAR uni0457
ENCODING 1111
SWIDTH 888 0
DWIDTH 8 0
BBX 6 14 0 0
BITMAP
CC
CC
00
00
F0
F0
30
30
30
30
30
30
FC
FC
ENDCHAR
STARTCHAR uni045E
ENCODING 1118
SWIDTH 888 0
DWIDTH 8 0
BBX 6 14 0 0
BITMAP
30
30
00
00
CC
CC
CC
CC
FC
FC
0C
0C
3C
3C
ENDCHAR
STARTCHAR uni0490
ENCODING 1168
SWIDTH 1111 0
DWIDTH 10 0
BBX 8 16 0 0
BITMAP
03
03
FC
FC
C0
C0
C0
C0
C0
C0
C0
C0
C0
C0
C0
C0
ENDCHAR
STARTCHAR uni0491
ENCODING 1169
SWIDTH 888 0
DWIDTH 8 0
BBX 6 12 0 0
BITMAP
0C
0C
F0
F0
C0
C0
C0
C0
C0
C0
C0
C0
ENDCHAR
STARTCHAR uni2002
ENCODING 8194
SWIDTH 666 0
DWIDTH 6 0
BBX 2 2 0 0
BITMAP
00
00
ENDCHAR
STARTCHAR uni2003
ENCODING 8195
SWIDTH 888 0
DWIDTH 8 0
BBX 2 2 0 0
BITMAP
00
00
ENDCHAR
STARTCHAR uni2009
ENCODING 8201
SWIDTH 222 0
DWIDTH 2 0
BBX 2 2 12 0
BITMAP
00
00
ENDCHAR
STARTCHAR uni2010
ENCODING 8208
SWIDTH 222 0
DWIDTH 2 0
BBX 2 2 0 8
BITMAP
C0
C0
ENDCHAR
STARTCHAR endash
ENCODING 8211
SWIDTH 666 0
DWIDTH 6 0
BBX 4 2 0 8
BITMAP
F0
F0
ENDCHAR
STARTCHAR emdash
ENCODING 8212
SWIDTH 1111 0
DWIDTH 10 0
BBX 8 2 0 8
BITMAP
FF
FF
ENDCHAR
STARTCHAR uni2015
ENCODING 8213
SWIDTH 888 0
DWIDTH 8 0
BBX 8 2 0 8
BITMAP
FF
FF
ENDCHAR
STARTCHAR bullet
ENCODING 8226
SWIDTH 444 0
DWIDTH 4 0
BBX 2 2 0 8
BITMAP
C0
C0
ENDCHAR
STARTCHAR colonmonetary
ENCODING 8353
SWIDTH 1111 0
DWIDTH 10 0
BBX 8 16 0 0
BITMAP
03
03
FF
FF
CC
CC
CC
CC
CC
CC
CC
CC
FF
FF
30
30
ENDCHAR
STARTCHAR uni20A2
ENCODING 8354
SWIDTH 1111 0
DWIDTH 10 0
BBX 8 16 0 0
BITMAP
FF
FF
C0
C0
C0
C0
CF
CF
CC
CC
CC
CC
CC
CC
FF
FF
ENDCHAR
STARTCHAR uni20A6
ENCODING 8358
SWIDTH 1555 0
DWIDTH 14 0
BBX 12 16 0 0
BITMAP
30C0
30C0
30C0
30C0
FCF0
FCF0
33C0
33C0
F0F0
F0F0
30C0
30C0
30C0
30C0
30C0
30C0
ENDCHAR
STARTCHAR uni20A9
ENCODING 8361
SWIDTH 1777 0
DWIDTH 16 0
BBX 14 16 0 0
BITMAP
3330
3330
3330
3330
FFFC
FFFC
3330
3330
3330
3330
3330
3330
3FF0
3FF0
0CC0
0CC0
ENDCHAR
STARTCHAR uni20AA
ENCODING 8362
SWIDTH 1555 0
DWIDTH 14 0
BBX 12 12 0 0
BITMAP
FF30
FF30
C330
C330
CF30
CF30
CF30
CF30
CC30
CC30
CFF0
CFF0
ENDCHAR
STARTCHAR dong
ENCODING 8363
SWIDTH 1111 0
DWIDTH 10 0
BBX 8 16 0 0
BITMAP
0C
0C
3F
3F
0C
0C
FC
FC
CC
CC
FC
FC
00
00
FC
FC
ENDCHAR
STARTCHAR Euro
ENCODING 8364
SWIDTH 1111 0
DWIDTH 10 0
BBX 8 16 0 0
BITMAP
0F
0F
3C
3C
30
30
FF
FF
30
30
30
30
3C
3C
0F
0F
ENDCHAR
STARTCHAR uni20AD
ENCODING 8365
SWIDTH 1111 0
DWIDTH 10 0
BBX 8 16 0 0
BITMAP
33
33
33
33
3C
3C
FF
FF
3C
3C
33
33
33
33
33
33
ENDCHAR
STARTCHAR uni20AE
ENCODING 8366
SWIDTH 888 0
DWIDTH 8 0
BBX 6 16 0 0
BITMAP
FC
FC
30
30
3C
3C
30
30
F0
F0
30
30
30
30
30
30
ENDCHAR
STARTCHAR uni20B1
ENCODING 8369
SWIDTH 1333 0
DWIDTH 12 0
BBX 10 16 0 0
BITMAP
3F00
3F00
F3C0
F3C0
3300
3300
3F00
3F00
3000
3000
3000
3000
3000
3000
3000
3000
ENDCHAR
STARTCHAR uni20B2
ENCODING 8370
SWIDTH 1111 0
DWIDTH 10 0
BBX 8 16 0 0
BITMAP
30
30
FC
FC
C0
C0
CF
CF
C3
C3
C3
C3
FF
FF
30
30
ENDCHAR
STARTCHAR uni20B4
ENCODING 8372
SWIDTH 1333 0
DWIDTH 12 0
BBX 10 16 0 0
BITMAP
3F00
3F00
3300
3300
0300
0300
FFC0
FFC0
3000
3000
3300
3300
3300
3300
3F00
3F00
ENDCHAR
STARTCHAR uni20B5
ENCODING 8373
SWIDTH 888 0
DWIDTH 8 0
BBX 6 14 0 0
BITMAP
30
30
FC
FC
C0
C0
C0
C0
C0
C0
FC
FC
30
30
ENDCHAR
STARTCHAR uni20B8
ENCODING 8376
SWIDTH 888 0
DWIDTH 8 0
BBX 6 16 0 0
BITMAP
FC
FC
00
00
FC
FC
30
30
30
30
30
30
30
30
30
30
ENDCHAR
STARTCHAR uni20B9
ENCODING 8377
SWIDTH 1111 0
DWIDTH 10 0
BBX 8 16 0 0
BITMAP
FF
FF
0C
0C
FF
FF
C0
C0
30
30
0C
0C
03
03
03
03
ENDCHAR
STARTCHAR uni20BA
ENCODING 8378
SWIDTH 1111 0
DWIDTH 10 0
BBX 8 16 0 0
BITMAP
FC
FC
30
30
FC
FC
30
30
30
30
33
33
33
33
3F
3F
ENDCHAR
STARTCHAR uni20BC
ENCODING 8380
SWIDTH 1333 0
DWIDTH 12 0
BBX 10 14 0 0
BITMAP
0C00
0C00
0C00
0C00
FFC0
FFC0
CCC0
CCC0
CCC0
CCC0
CCC0
CCC0
CCC0
CCC0
ENDCHAR
STARTCHAR uni20BD
ENCODING 8381
SWIDTH 1111 0
DWIDTH 10 0
BBX 8 16 0 0
BITMAP
3F
3F
33
33
3F
3F
30
30
FC
FC
30
30
30
30
30
30
ENDCHAR
STARTCHAR uni20BE
ENCODING 8382
SWIDTH 1333 0
DWIDTH 12 0
BBX 10 16 0 0
BITMAP
0C00
0C00
FFC0
FFC0
CCC0
CCC0
CCC0
CCC0
CC00
CC00
C000
C000
3000
3000
FFC0
FFC0
ENDCHAR
STARTCHAR uni20BF
ENCODING 8383
SWIDTH 888 0
DWIDTH 8 0
BBX 6 16 0 0
BITMAP
30
30
FC
FC
CC
CC
F0
F0
CC
CC
CC
CC
FC
FC
30
30
ENDCHAR
STARTCHAR uni20C0
ENCODING 8384
SWIDTH 888 0
DWIDTH 8 0
BBX 6 12 0 0
BITMAP
FC
FC
C0
C0
C0
C0
FC
FC
00
00
FC
FC
ENDCHAR
STARTCHAR uni2103
ENCODING 8451
SWIDTH 1333 0
DWIDTH 12 0
BBX 10 16 0 0
BITMAP
CFC0
CFC0
CCC0
CCC0
0C00
0C00
0C00
0C00
0C00
0C00
0C00
0C00
0CC0
0CC0
0FC0
0FC0
ENDCHAR
STARTCHAR uni2109
ENCODING 8457
SWIDTH 1333 0
DWIDTH 12 0
BBX 10 16 0 0
BITMAP
CFC0
CFC0
CC00
CC00
0C00
0C00
0FC0
0FC0
0C00
0C00
0C00
0C00
0C00
0C00
0C00
0C00
ENDCHAR
STARTCHAR uni2460
ENCODING 9312
SWIDTH 222 0
DWIDTH 2 0
BBX 2 2 8 0
BITMAP
00
00
ENDCHAR
STARTCHAR uni2461
ENCODING 9313
SWIDTH 444 0
DWIDTH 4 0
BBX 2 2 2 0
BITMAP
00
00
ENDCHAR
STARTCHAR uni2462
ENCODING 9314
SWIDTH 666 0
DWIDTH 6 0
BBX 2 2 6 0
BITMAP
00
00
ENDCHAR
STARTCHAR uni2463
ENCODING 9315
SWIDTH 888 0
DWIDTH 8 0
BBX 2 2 8 0
BITMAP
00
00
ENDCHAR
STARTCHAR uni2464
ENCODING 9316
SWIDTH 1111 0
DWIDTH 10 0
BBX 2 2 8 0
BITMAP
00
00
ENDCHAR
STARTCHAR uni2465
ENCODING 9317
SWIDTH 1333 0
DWIDTH 12 0
BBX 2 2 2 0
BITMAP
00
00
ENDCHAR
STARTCHAR uni2466
ENCODING 9318
SWIDTH 1555 0
DWIDTH 14 0
BBX 2 2 6 0
BITMAP
00
00
ENDCHAR
STARTCHAR uni2467
ENCODING 9319
SWIDTH 1777 0
DWIDTH 16 0
BBX 2 2 8 0
BITMAP
00
00
ENDCHAR
STARTCHAR uni2468
ENCODING 9320
SWIDTH 2000 0
DWIDTH 18 0
BBX 2 2 8 0
BITMAP
00
00
ENDCHAR
STARTCHAR uni2469
ENCODING 9321
SWIDTH 2222 0
DWIDTH 20 0
BBX 2 2 8 0
BITMAP
00
00
ENDCHAR
STARTCHAR uni24EA
ENCODING 9450
SWIDTH 0 0
DWIDTH 0 0
BBX 2 2 6 0
BITMAP
00
00
ENDCHAR
STARTCHAR H22073
ENCODING 9633
SWIDTH 888 0
DWIDTH 8 0
BBX 6 12 0 2
BITMAP
FC
FC
CC
CC
CC
CC
CC
CC
CC
CC
FC
FC
ENDCHAR
STARTCHAR uni4E00
ENCODING 19968
SWIDTH 1777 0
DWIDTH 16 0
BBX 14 4 0 6
BITMAP
0030
0030
FFFC
FFFC
ENDCHAR
STARTCHAR uni4E03
ENCODING 19971
SWIDTH 1777 0
DWIDTH 16 0
BBX 14 16 0 0
BITMAP
0C00
0C00
0C00
0C00
0CFC
0CFC
FF00
FF00
0C00
0C00
0C00
0C00
0C0C
0C0C
03FC
03FC
ENDCHAR
STARTCHAR uni4E09
ENCODING 19977
SWIDTH 1777 0
DWIDTH 16 0
BBX 14 16 0 0
BITMAP
3FF0
3FF0
0000
0000
0000
0000
0FC0
0FC0
0000
0000
0000
0000
0030
0030
FFFC
FFFC
ENDCHAR
STARTCHAR uni4E0A
ENCODING 19978
SWIDTH 1111 0
DWIDTH 10 0
BBX 8 16 0 0
BITMAP
30
30
30
30
3F
3F
30
30
30
30
30
30
30
30
FF
FF
ENDCHAR
STARTCHAR uni4E0B
ENCODING 19979
SWIDTH 1111 0
DWIDTH 10 0
BBX 8 16 0 0
BITMAP
FF
FF
30
30
3C
3C
33
33
30
30
30
30
30
30
30
30
ENDCHAR
STARTCHAR uni4E5D
ENCODING 20061
SWIDTH 1777 0
DWIDTH 16 0
BBX 14 16 0 0
BITMAP
0C00
0C00
FFC0
FFC0
0CC0
0CC0
0CC0
0CC0
30C0
30C0
30C0
30C0
30CC
30CC
C0FC
C0FC
ENDCHAR
STARTCHAR uni4E8C
ENCODING 20108
SWIDTH 1777 0
DWIDTH 16 0
BBX 14 12 0 2
BITMAP
3FF0
3FF0
0000
0000
0000
0000
0000
0000
0030
0030
FFFC
FFFC
ENDCHAR
STARTCHAR uni4E94
ENCODING 20116
SWIDTH 1777 0
DWIDTH 16 0
BBX 14 16 0 0
BITMAP
3FF0
3FF0
0300
0300
0300
0300
3FF0
3FF0
0C30
0C30
0C30
0C30
0C30
0C30
FFFC
FFFC
ENDCHAR
STARTCHAR uni516B
ENCODING 20843
SWIDTH 1777 0
DWIDTH 16 0
BBX 14 16 0 0
BITMAP
0CC0
0CC0
0CC0
0CC0
0CC0
0CC0
0CC0
0CC0
3030
3030
3030
3030
3030
3030
C00C
C00C
ENDCHAR
STARTCHAR uni516D
ENCODING 20845
SWIDTH 1777 0
DWIDTH 16 0
BBX 14 16 0 0
BITMAP
0300
0300
FFFC
FFFC
0000
0000
0CC0
0CC0
0CC0
0CC0
3030
3030
3030
3030
C00C
C00C
ENDCHAR
STARTCHAR uni5341
ENCODING 21313
SWIDTH 1777 0
DWIDTH 16 0
BBX 14 16 0 0
BITMAP
0300
0300
0300
0300
FFFC
FFFC
0300
0300
0300
0300
0300
0300
0300
0300
0300
0300
ENDCHAR
STARTCHAR uni5348
ENCODING 21320
SWIDTH 1111 0
DWIDTH 10 0
BBX 10 16 0 0
BITMAP
3000
3000
3F00
3F00
CC00
CC00
0C00
0C00
FFC0
FFC0
0C00
0C00
0C00
0C00
0C00
0C00
ENDCHAR
STARTCHAR uni56DB
ENCODING 22235
SWIDTH 1777 0
DWIDTH 16 0
BBX 14 16 0 0
BITMAP
FFFC
FFFC
CCCC
CCCC
CCCC
CCCC
CCFC
CCFC
F00C
F00C
C00C
C00C
FFFC
FFFC
C00C
C00C
ENDCHAR
STARTCHAR uni5929
ENCODING 22825
SWIDTH 1777 0
DWIDTH 16 0
BBX 14 16 0 0
BITMAP
3FF0
3FF0
0300
0300
0300
0300
FFFC
FFFC
0300
0300
0300
0300
0CC0
0CC0
F03C
F03C
ENDCHAR
STARTCHAR uni661F
ENCODING 26143
SWIDTH 1777 0
DWIDTH 16 0
BBX 14 16 0 0
BITMAP
FFF0
FFF0
C030
C030
FFF0
FFF0
33FC
33FC
C300
C300
3FF0
3FF0
0300
0300
FFFC
FFFC
ENDCHAR
STARTCHAR uni6708
ENCODING 26376
SWIDTH 1777 0
DWIDTH 16 0
BBX 14 16 0 0
BITMAP
0FFC
0FFC
0C0C
0C0C
0FFC
0FFC
0C0C
0C0C
0FFC
0FFC
0C0C
0C0C
300C
300C
C03C
C03C
ENDCHAR
STARTCHAR uni671F
ENCODING 26399
SWIDTH 1777 0
DWIDTH 16 0
BBX 14 16 0 0
BITMAP
33FC
33FC
FFCC
FFCC
33FC
33FC
3FCC
3FCC
33FC
33FC
FCCC
FCCC
030C
030C
CC3C
CC3C
ENDCHAR
STARTCHAR uniAE08
ENCODING 44552
SWIDTH 1333 0
DWIDTH 12 0
BBX 10 16 0 0
BITMAP
FFC0
FFC0
00C0
00C0
0000
0000
FFC0
FFC0
0000
0000
FFC0
FFC0
C0C0
C0C0
FFC0
FFC0
ENDCHAR
STARTCHAR uniBAA9
ENCODING 47785
SWIDTH 1333 0
DWIDTH 12 0
BBX 10 16 0 0
BITMAP
FFC0
FFC0
C0C0
C0C0
FFC0
FFC0
0C00
0C00
FFC0
FFC0
0000
0000
FFC0
FFC0
00C0
00C0
ENDCHAR
STARTCHAR uniC218
ENCODING 49688
SWIDTH 1333 0
DWIDTH 12 0
BBX 10 16 0 0
BITMAP
0C00
0C00
0C00
0C00
3300
3300
C0C0
C0C0
0000
0000
FFC0
FFC0
0C00
0C00
0C00
0C00
ENDCHAR
STARTCHAR uniC624
ENCODING 50724
SWIDTH 1333 0
DWIDTH 12 0
BBX 10 14 0 2
BITMAP
3F00
3F00
C0C0
C0C0
C0C0
C0C0
3F00
3F00
0C00
0C00
0C00
0C00
FFC0
FFC0
ENDCHAR
STARTCHAR uniC694
ENCODING 50836
SWIDTH 1333 0
DWIDTH 12 0
BBX 10 14 0 2
BITMAP
3F00
3F00
C0C0
C0C0
C0C0
C0C0
3F00
3F00
3300
3300
3300
3300
FFC0
FFC0
ENDCHAR
STARTCHAR uniC6D4
ENCODING 50900
SWIDTH 1333 0
DWIDTH 12 0
BBX 10 16 0 0
BITMAP
30C0
30C0
CCC0
CCC0
30C0
30C0
FCC0
FCC0
33C0
33C0
0FC0
0FC0
F000
F000
FFC0
FFC0
ENDCHAR
STARTCHAR uniC77C
ENCODING 51068
SWIDTH 1333 0
DWIDTH 12 0
BBX 10 16 0 0
BITMAP
30C0
30C0
CCC0
CCC0
30C0
30C0
0000
0000
FFC0
FFC0
0FC0
0FC0
F000
F000
FFC0
FFC0
ENDCHAR
STARTCHAR uniC804
ENCODING 51204
SWIDTH 1555 0
DWIDTH 14 0
BBX 12 16 0 0
BITMAP
FF30
FF30
0C30
0C30
30F0
30F0
CC30
CC30
C330
C330
3030
3030
3000
3000
3FF0
3FF0
ENDCHAR
STARTCHAR uniD1A0
ENCODING 53664
SWIDTH 1333 0
DWIDTH 12 0
BBX 10 14 0 2
BITMAP
FFC0
FFC0
C000
C000
FF00
FF00
C000
C000
FFC0
FFC0
0C00
0C00
FFC0
FFC0
ENDCHAR
STARTCHAR uniD654
ENCODING 54868
SWIDTH 1777 0
DWIDTH 16 0
BBX 14 16 0 0
BITMAP
0C30
0C30
FFF0
FFF0
3330
3330
333C
333C
0C30
0C30
0C30
0C30
FFF0
FFF0
0030
0030
ENDCHAR
STARTCHAR uniD6C4
ENCODING 54980
SWIDTH 1333 0
DWIDTH 12 0
BBX 10 16 0 0
BITMAP
0C00
0C00
FFC0
FFC0
3300
3300
0C00
0C00
0000
0000
FFC0
FFC0
0C00
0C00
0C00
0C00
ENDCHAR
STARTCHAR uniFFE5
ENCODING 65509
SWIDTH 888 0
DWIDTH 8 0
BBX 6 16 0 0
BITMAP
CC
CC
CC
CC
FC
FC
30
30
FC
FC
30
30
30
30
30
30
ENDCHAR
STARTCHAR uniFFFD
ENCODING 65533
SWIDTH 888 0
DWIDTH 8 0
BBX 6 12 0 2
BITMAP
CC
CC
CC
CC
30
30
CC
CC
CC
CC
CC
CC
ENDCHAR
ENDFONT
